  0
SECTION
  2
HEADER
  9
$ACADVER
  1
AC1009
  9
$MEASUREMENT
 70
     1
  0
ENDSEC
  0
SECTION
  2
ENTITIES
  0
LWPOLYLINE
  8
0
 62
7
 90
9
 70
1
 10
58.000000
 20
41.098437
 10
57.201563
 20
41.098437
 10
57.201563
 20
38.501562
 10
58.798437
 20
38.501562
 10
58.798437
 20
41.098437
 10
57.201563
 20
41.098437
 10
57.201563
 20
38.501562
 10
58.798437
 20
38.501562
 10
58.798437
 20
41.098437
  0
LWPOLYLINE
  8
0
 62
7
 90
9
 70
1
 10
58.000000
 20
37.498438
 10
57.201563
 20
37.498438
 10
57.201563
 20
34.901563
 10
58.798437
 20
34.901563
 10
58.798437
 20
37.498438
 10
57.201563
 20
37.498438
 10
57.201563
 20
34.901563
 10
58.798437
 20
34.901563
 10
58.798437
 20
37.498438
  0
LWPOLYLINE
  8
0
 62
7
 90
9
 70
1
 10
55.351562
 20
42.000000
 10
55.351562
 20
41.201563
 10
56.648438
 20
41.201563
 10
56.648438
 20
42.798437
 10
55.351562
 20
42.798437
 10
55.351562
 20
41.201563
 10
56.648438
 20
41.201563
 10
56.648438
 20
42.798437
 10
55.351562
 20
42.798437
  0
LWPOLYLINE
  8
0
 62
7
 90
9
 70
1
 10
53.351562
 20
42.000000
 10
53.351562
 20
41.201563
 10
54.648438
 20
41.201563
 10
54.648438
 20
42.798437
 10
53.351562
 20
42.798437
 10
53.351562
 20
41.201563
 10
54.648438
 20
41.201563
 10
54.648438
 20
42.798437
 10
53.351562
 20
42.798437
  0
LWPOLYLINE
  8
0
 62
7
 90
9
 70
1
 10
51.070000
 20
28.051562
 10
51.818438
 20
28.051562
 10
51.818438
 20
29.348437
 10
50.321562
 20
29.348437
 10
50.321562
 20
28.051562
 10
51.818438
 20
28.051562
 10
51.818438
 20
29.348437
 10
50.321562
 20
29.348437
 10
50.321562
 20
28.051562
  0
LWPOLYLINE
  8
0
 62
7
 90
9
 70
1
 10
51.070000
 20
26.351562
 10
51.818438
 20
26.351562
 10
51.818438
 20
27.648438
 10
50.321562
 20
27.648438
 10
50.321562
 20
26.351562
 10
51.818438
 20
26.351562
 10
51.818438
 20
27.648438
 10
50.321562
 20
27.648438
 10
50.321562
 20
26.351562
  0
LWPOLYLINE
  8
0
 62
7
 90
9
 70
1
 10
38.920000
 20
27.161563
 10
39.418438
 20
27.161563
 10
39.418438
 20
28.258437
 10
38.421563
 20
28.258437
 10
38.421563
 20
27.161563
 10
39.418438
 20
27.161563
 10
39.418438
 20
28.258437
 10
38.421563
 20
28.258437
 10
38.421563
 20
27.161563
  0
LWPOLYLINE
  8
0
 62
7
 90
9
 70
1
 10
38.920000
 20
25.461563
 10
39.418438
 20
25.461563
 10
39.418438
 20
26.558438
 10
38.421563
 20
26.558438
 10
38.421563
 20
25.461563
 10
39.418438
 20
25.461563
 10
39.418438
 20
26.558438
 10
38.421563
 20
26.558438
 10
38.421563
 20
25.461563
  0
LWPOLYLINE
  8
0
 62
7
 90
9
 70
1
 10
37.131563
 20
16.080000
 10
37.131563
 20
15.581562
 10
38.228437
 20
15.581562
 10
38.228437
 20
16.578437
 10
37.131563
 20
16.578437
 10
37.131563
 20
15.581562
 10
38.228437
 20
15.581562
 10
38.228437
 20
16.578437
 10
37.131563
 20
16.578437
  0
LWPOLYLINE
  8
0
 62
7
 90
9
 70
1
 10
35.431562
 20
16.080000
 10
35.431562
 20
15.581562
 10
36.528437
 20
15.581562
 10
36.528437
 20
16.578437
 10
35.431562
 20
16.578437
 10
35.431562
 20
15.581562
 10
36.528437
 20
15.581562
 10
36.528437
 20
16.578437
 10
35.431562
 20
16.578437
  0
LWPOLYLINE
  8
0
 62
7
 90
9
 70
1
 10
23.810000
 20
24.888437
 10
23.061562
 20
24.888437
 10
23.061562
 20
23.591562
 10
24.558438
 20
23.591562
 10
24.558438
 20
24.888437
 10
23.061562
 20
24.888437
 10
23.061562
 20
23.591562
 10
24.558438
 20
23.591562
 10
24.558438
 20
24.888437
  0
LWPOLYLINE
  8
0
 62
7
 90
9
 70
1
 10
23.810000
 20
26.588438
 10
23.061562
 20
26.588438
 10
23.061562
 20
25.291563
 10
24.558438
 20
25.291563
 10
24.558438
 20
26.588438
 10
23.061562
 20
26.588438
 10
23.061562
 20
25.291563
 10
24.558438
 20
25.291563
 10
24.558438
 20
26.588438
  0
LWPOLYLINE
  8
0
 62
7
 90
9
 70
1
 10
23.810000
 20
18.268438
 10
23.061562
 20
18.268438
 10
23.061562
 20
16.971563
 10
24.558438
 20
16.971563
 10
24.558438
 20
18.268438
 10
23.061562
 20
18.268438
 10
23.061562
 20
16.971563
 10
24.558438
 20
16.971563
 10
24.558438
 20
18.268438
  0
LWPOLYLINE
  8
0
 62
7
 90
9
 70
1
 10
23.810000
 20
19.968438
 10
23.061562
 20
19.968438
 10
23.061562
 20
18.671563
 10
24.558438
 20
18.671563
 10
24.558438
 20
19.968438
 10
23.061562
 20
19.968438
 10
23.061562
 20
18.671563
 10
24.558438
 20
18.671563
 10
24.558438
 20
19.968438
  0
LWPOLYLINE
  8
0
 62
7
 90
9
 70
1
 10
36.308437
 20
23.050000
 10
36.308437
 20
23.798438
 10
35.011562
 20
23.798438
 10
35.011562
 20
22.301562
 10
36.308437
 20
22.301562
 10
36.308437
 20
23.798438
 10
35.011562
 20
23.798438
 10
35.011562
 20
22.301562
 10
36.308437
 20
22.301562
  0
LWPOLYLINE
  8
0
 62
7
 90
9
 70
1
 10
38.008437
 20
23.050000
 10
38.008437
 20
23.798438
 10
36.711562
 20
23.798438
 10
36.711562
 20
22.301562
 10
38.008437
 20
22.301562
 10
38.008437
 20
23.798438
 10
36.711562
 20
23.798438
 10
36.711562
 20
22.301562
 10
38.008437
 20
22.301562
  0
LWPOLYLINE
  8
0
 62
7
 90
9
 70
1
 10
52.648438
 20
33.000000
 10
52.648438
 20
33.798437
 10
51.351562
 20
33.798437
 10
51.351562
 20
32.201563
 10
52.648438
 20
32.201563
 10
52.648438
 20
33.798437
 10
51.351562
 20
33.798437
 10
51.351562
 20
32.201563
 10
52.648438
 20
32.201563
  0
LWPOLYLINE
  8
0
 62
7
 90
9
 70
1
 10
54.648438
 20
33.000000
 10
54.648438
 20
33.798437
 10
53.351562
 20
33.798437
 10
53.351562
 20
32.201563
 10
54.648438
 20
32.201563
 10
54.648438
 20
33.798437
 10
53.351562
 20
33.798437
 10
53.351562
 20
32.201563
 10
54.648438
 20
32.201563
  0
LWPOLYLINE
  8
0
 62
7
 90
9
 70
1
 10
48.260000
 20
28.151563
 10
48.758437
 20
28.151563
 10
48.758437
 20
29.248437
 10
47.761562
 20
29.248437
 10
47.761562
 20
28.151563
 10
48.758437
 20
28.151563
 10
48.758437
 20
29.248437
 10
47.761562
 20
29.248437
 10
47.761562
 20
28.151563
  0
LWPOLYLINE
  8
0
 62
7
 90
9
 70
1
 10
48.260000
 20
26.451563
 10
48.758437
 20
26.451563
 10
48.758437
 20
27.548437
 10
47.761562
 20
27.548437
 10
47.761562
 20
26.451563
 10
48.758437
 20
26.451563
 10
48.758437
 20
27.548437
 10
47.761562
 20
27.548437
 10
47.761562
 20
26.451563
  0
LWPOLYLINE
  8
0
 62
7
 90
9
 70
1
 10
77.500000
 20
48.648438
 10
76.961562
 20
48.648438
 10
76.961562
 20
47.601562
 10
78.038438
 20
47.601562
 10
78.038438
 20
48.648438
 10
76.961562
 20
48.648438
 10
76.961562
 20
47.601562
 10
78.038438
 20
47.601562
 10
78.038438
 20
48.648438
  0
LWPOLYLINE
  8
0
 62
7
 90
9
 70
1
 10
77.500000
 20
50.398438
 10
76.961562
 20
50.398438
 10
76.961562
 20
49.351562
 10
78.038438
 20
49.351562
 10
78.038438
 20
50.398438
 10
76.961562
 20
50.398438
 10
76.961562
 20
49.351562
 10
78.038438
 20
49.351562
 10
78.038438
 20
50.398438
  0
LWPOLYLINE
  8
0
 62
7
 90
9
 70
1
 10
67.000000
 20
45.351562
 10
67.798438
 20
45.351562
 10
67.798438
 20
46.648438
 10
66.201562
 20
46.648438
 10
66.201562
 20
45.351562
 10
67.798438
 20
45.351562
 10
67.798438
 20
46.648438
 10
66.201562
 20
46.648438
 10
66.201562
 20
45.351562
  0
LWPOLYLINE
  8
0
 62
7
 90
9
 70
1
 10
67.000000
 20
43.351562
 10
67.798438
 20
43.351562
 10
67.798438
 20
44.648438
 10
66.201562
 20
44.648438
 10
66.201562
 20
43.351562
 10
67.798438
 20
43.351562
 10
67.798438
 20
44.648438
 10
66.201562
 20
44.648438
 10
66.201562
 20
43.351562
  0
LWPOLYLINE
  8
0
 62
7
 90
9
 70
1
 10
39.930000
 20
15.228438
 10
39.181562
 20
15.228438
 10
39.181562
 20
13.931563
 10
40.678438
 20
13.931563
 10
40.678438
 20
15.228438
 10
39.181562
 20
15.228438
 10
39.181562
 20
13.931563
 10
40.678438
 20
13.931563
 10
40.678438
 20
15.228438
  0
LWPOLYLINE
  8
0
 62
7
 90
9
 70
1
 10
39.930000
 20
16.928438
 10
39.181562
 20
16.928438
 10
39.181562
 20
15.631563
 10
40.678438
 20
15.631563
 10
40.678438
 20
16.928438
 10
39.181562
 20
16.928438
 10
39.181562
 20
15.631563
 10
40.678438
 20
15.631563
 10
40.678438
 20
16.928438
  0
LWPOLYLINE
  8
0
 62
7
 90
9
 70
1
 10
36.308437
 20
20.510000
 10
36.308437
 20
21.258438
 10
35.011562
 20
21.258438
 10
35.011562
 20
19.761563
 10
36.308437
 20
19.761563
 10
36.308437
 20
21.258438
 10
35.011562
 20
21.258438
 10
35.011562
 20
19.761563
 10
36.308437
 20
19.761563
  0
LWPOLYLINE
  8
0
 62
7
 90
9
 70
1
 10
38.008437
 20
20.510000
 10
38.008437
 20
21.258438
 10
36.711562
 20
21.258438
 10
36.711562
 20
19.761563
 10
38.008437
 20
19.761563
 10
38.008437
 20
21.258438
 10
36.711562
 20
21.258438
 10
36.711562
 20
19.761563
 10
38.008437
 20
19.761563
  0
LWPOLYLINE
  8
0
 62
7
 90
9
 70
1
 10
28.688437
 20
20.510000
 10
28.688437
 20
21.258438
 10
27.391562
 20
21.258438
 10
27.391562
 20
19.761563
 10
28.688437
 20
19.761563
 10
28.688437
 20
21.258438
 10
27.391562
 20
21.258438
 10
27.391562
 20
19.761563
 10
28.688437
 20
19.761563
  0
LWPOLYLINE
  8
0
 62
7
 90
9
 70
1
 10
30.388437
 20
20.510000
 10
30.388437
 20
21.258438
 10
29.091562
 20
21.258438
 10
29.091562
 20
19.761563
 10
30.388437
 20
19.761563
 10
30.388437
 20
21.258438
 10
29.091562
 20
21.258438
 10
29.091562
 20
19.761563
 10
30.388437
 20
19.761563
  0
LWPOLYLINE
  8
0
 62
7
 90
9
 70
1
 10
31.430000
 20
16.498438
 10
30.681562
 20
16.498438
 10
30.681562
 20
15.201562
 10
32.178438
 20
15.201562
 10
32.178438
 20
16.498438
 10
30.681562
 20
16.498438
 10
30.681562
 20
15.201562
 10
32.178438
 20
15.201562
 10
32.178438
 20
16.498438
  0
LWPOLYLINE
  8
0
 62
7
 90
9
 70
1
 10
31.430000
 20
18.198438
 10
30.681562
 20
18.198438
 10
30.681562
 20
16.901563
 10
32.178438
 20
16.901563
 10
32.178438
 20
18.198438
 10
30.681562
 20
18.198438
 10
30.681562
 20
16.901563
 10
32.178438
 20
16.901563
 10
32.178438
 20
18.198438
  0
LWPOLYLINE
  8
0
 62
7
 90
9
 70
1
 10
30.160000
 20
26.658438
 10
29.411562
 20
26.658438
 10
29.411562
 20
25.361563
 10
30.908438
 20
25.361563
 10
30.908438
 20
26.658438
 10
29.411562
 20
26.658438
 10
29.411562
 20
25.361563
 10
30.908438
 20
25.361563
 10
30.908438
 20
26.658438
  0
LWPOLYLINE
  8
0
 62
7
 90
9
 70
1
 10
30.160000
 20
28.358438
 10
29.411562
 20
28.358438
 10
29.411562
 20
27.061563
 10
30.908438
 20
27.061563
 10
30.908438
 20
28.358438
 10
29.411562
 20
28.358438
 10
29.411562
 20
27.061563
 10
30.908438
 20
27.061563
 10
30.908438
 20
28.358438
  0
LWPOLYLINE
  8
0
 62
7
 90
9
 70
1
 10
67.000000
 20
41.351562
 10
67.798438
 20
41.351562
 10
67.798438
 20
42.648438
 10
66.201562
 20
42.648438
 10
66.201562
 20
41.351562
 10
67.798438
 20
41.351562
 10
67.798438
 20
42.648438
 10
66.201562
 20
42.648438
 10
66.201562
 20
41.351562
  0
LWPOLYLINE
  8
0
 62
7
 90
9
 70
1
 10
67.000000
 20
39.351562
 10
67.798438
 20
39.351562
 10
67.798438
 20
40.648438
 10
66.201562
 20
40.648438
 10
66.201562
 20
39.351562
 10
67.798438
 20
39.351562
 10
67.798438
 20
40.648438
 10
66.201562
 20
40.648438
 10
66.201562
 20
39.351562
  0
LWPOLYLINE
  8
0
 62
7
 90
9
 70
1
 10
63.000000
 20
26.401563
 10
63.698437
 20
26.401563
 10
63.698437
 20
27.798438
 10
62.301563
 20
27.798438
 10
62.301563
 20
26.401563
 10
63.698437
 20
26.401563
 10
63.698437
 20
27.798438
 10
62.301563
 20
27.798438
 10
62.301563
 20
26.401563
  0
LWPOLYLINE
  8
0
 62
7
 90
9
 70
1
 10
63.000000
 20
30.201562
 10
63.698437
 20
30.201562
 10
63.698437
 20
31.598437
 10
62.301563
 20
31.598437
 10
62.301563
 20
30.201562
 10
63.698437
 20
30.201562
 10
63.698437
 20
31.598437
 10
62.301563
 20
31.598437
 10
62.301563
 20
30.201562
  0
LWPOLYLINE
  8
0
 62
7
 90
9
 70
1
 10
63.000000
 20
47.598437
 10
62.301563
 20
47.598437
 10
62.301563
 20
46.201563
 10
63.698437
 20
46.201563
 10
63.698437
 20
47.598437
 10
62.301563
 20
47.598437
 10
62.301563
 20
46.201563
 10
63.698437
 20
46.201563
 10
63.698437
 20
47.598437
  0
LWPOLYLINE
  8
0
 62
7
 90
9
 70
1
 10
63.000000
 20
43.798437
 10
62.301563
 20
43.798437
 10
62.301563
 20
42.401563
 10
63.698437
 20
42.401563
 10
63.698437
 20
43.798437
 10
62.301563
 20
43.798437
 10
62.301563
 20
42.401563
 10
63.698437
 20
42.401563
 10
63.698437
 20
43.798437
  0
LWPOLYLINE
  8
0
 62
7
 90
9
 70
1
 10
47.000000
 20
48.598437
 10
46.301563
 20
48.598437
 10
46.301563
 20
47.201563
 10
47.698437
 20
47.201563
 10
47.698437
 20
48.598437
 10
46.301563
 20
48.598437
 10
46.301563
 20
47.201563
 10
47.698437
 20
47.201563
 10
47.698437
 20
48.598437
  0
LWPOLYLINE
  8
0
 62
7
 90
9
 70
1
 10
47.000000
 20
44.798437
 10
46.301563
 20
44.798437
 10
46.301563
 20
43.401563
 10
47.698437
 20
43.401563
 10
47.698437
 20
44.798437
 10
46.301563
 20
44.798437
 10
46.301563
 20
43.401563
 10
47.698437
 20
43.401563
 10
47.698437
 20
44.798437
  0
LWPOLYLINE
  8
0
 62
7
 90
9
 70
1
 10
36.748438
 20
49.250000
 10
36.748438
 20
49.998438
 10
35.251562
 20
49.998438
 10
35.251562
 20
48.501562
 10
36.748438
 20
48.501562
 10
36.748438
 20
49.998438
 10
35.251562
 20
49.998438
 10
35.251562
 20
48.501562
 10
36.748438
 20
48.501562
  0
LWPOLYLINE
  8
0
 62
7
 90
9
 70
1
 10
36.748438
 20
52.750000
 10
36.748438
 20
53.498438
 10
35.251562
 20
53.498438
 10
35.251562
 20
52.001562
 10
36.748438
 20
52.001562
 10
36.748438
 20
53.498438
 10
35.251562
 20
53.498438
 10
35.251562
 20
52.001562
 10
36.748438
 20
52.001562
  0
LWPOLYLINE
  8
0
 62
7
 90
9
 70
1
 10
74.750000
 20
52.748438
 10
74.001563
 20
52.748438
 10
74.001563
 20
51.251562
 10
75.498437
 20
51.251562
 10
75.498437
 20
52.748438
 10
74.001563
 20
52.748438
 10
74.001563
 20
51.251562
 10
75.498437
 20
51.251562
 10
75.498437
 20
52.748438
  0
LWPOLYLINE
  8
0
 62
7
 90
9
 70
1
 10
71.250000
 20
52.748438
 10
70.501563
 20
52.748438
 10
70.501563
 20
51.251562
 10
71.998437
 20
51.251562
 10
71.998437
 20
52.748438
 10
70.501563
 20
52.748438
 10
70.501563
 20
51.251562
 10
71.998437
 20
51.251562
 10
71.998437
 20
52.748438
  0
LWPOLYLINE
  8
0
 62
7
 90
9
 70
1
 10
81.800000
 20
44.659163
 10
82.077838
 20
44.659163
 10
82.077838
 20
45.926037
 10
81.522162
 20
45.926037
 10
81.522162
 20
44.659163
 10
82.077838
 20
44.659163
 10
82.077838
 20
45.926037
 10
81.522162
 20
45.926037
 10
81.522162
 20
44.659163
  0
LWPOLYLINE
  8
0
 62
7
 90
9
 70
1
 10
81.000000
 20
44.659163
 10
81.277838
 20
44.659163
 10
81.277838
 20
45.926037
 10
80.722162
 20
45.926037
 10
80.722162
 20
44.659163
 10
81.277838
 20
44.659163
 10
81.277838
 20
45.926037
 10
80.722162
 20
45.926037
 10
80.722162
 20
44.659163
  0
LWPOLYLINE
  8
0
 62
7
 90
9
 70
1
 10
80.200000
 20
44.659163
 10
80.477838
 20
44.659163
 10
80.477838
 20
45.926037
 10
79.922162
 20
45.926037
 10
79.922162
 20
44.659163
 10
80.477838
 20
44.659163
 10
80.477838
 20
45.926037
 10
79.922162
 20
45.926037
 10
79.922162
 20
44.659163
  0
LWPOLYLINE
  8
0
 62
7
 90
9
 70
1
 10
79.400000
 20
44.659163
 10
79.677838
 20
44.659163
 10
79.677838
 20
45.926037
 10
79.122163
 20
45.926037
 10
79.122163
 20
44.659163
 10
79.677838
 20
44.659163
 10
79.677838
 20
45.926037
 10
79.122163
 20
45.926037
 10
79.122163
 20
44.659163
  0
LWPOLYLINE
  8
0
 62
7
 90
9
 70
1
 10
78.600000
 20
44.659163
 10
78.877837
 20
44.659163
 10
78.877837
 20
45.926037
 10
78.322162
 20
45.926037
 10
78.322162
 20
44.659163
 10
78.877837
 20
44.659163
 10
78.877837
 20
45.926037
 10
78.322162
 20
45.926037
 10
78.322162
 20
44.659163
  0
LWPOLYLINE
  8
0
 62
7
 90
9
 70
1
 10
77.800000
 20
44.659163
 10
78.077838
 20
44.659163
 10
78.077838
 20
45.926037
 10
77.522162
 20
45.926037
 10
77.522162
 20
44.659163
 10
78.077838
 20
44.659163
 10
78.077838
 20
45.926037
 10
77.522162
 20
45.926037
 10
77.522162
 20
44.659163
  0
LWPOLYLINE
  8
0
 62
7
 90
9
 70
1
 10
77.000000
 20
44.659163
 10
77.277838
 20
44.659163
 10
77.277838
 20
45.926037
 10
76.722162
 20
45.926037
 10
76.722162
 20
44.659163
 10
77.277838
 20
44.659163
 10
77.277838
 20
45.926037
 10
76.722162
 20
45.926037
 10
76.722162
 20
44.659163
  0
LWPOLYLINE
  8
0
 62
7
 90
9
 70
1
 10
76.200000
 20
44.659163
 10
76.477838
 20
44.659163
 10
76.477838
 20
45.926037
 10
75.922162
 20
45.926037
 10
75.922162
 20
44.659163
 10
76.477838
 20
44.659163
 10
76.477838
 20
45.926037
 10
75.922162
 20
45.926037
 10
75.922162
 20
44.659163
  0
LWPOLYLINE
  8
0
 62
7
 90
9
 70
1
 10
74.707400
 20
43.522163
 10
75.340838
 20
43.522163
 10
75.340838
 20
44.077837
 10
74.073963
 20
44.077837
 10
74.073963
 20
43.522163
 10
75.340838
 20
43.522163
 10
75.340838
 20
44.077837
 10
74.073963
 20
44.077837
 10
74.073963
 20
43.522163
  0
LWPOLYLINE
  8
0
 62
7
 90
9
 70
1
 10
74.707400
 20
42.722163
 10
75.340838
 20
42.722163
 10
75.340838
 20
43.277837
 10
74.073963
 20
43.277837
 10
74.073963
 20
42.722163
 10
75.340838
 20
42.722163
 10
75.340838
 20
43.277837
 10
74.073963
 20
43.277837
 10
74.073963
 20
42.722163
  0
LWPOLYLINE
  8
0
 62
7
 90
9
 70
1
 10
74.707400
 20
41.922163
 10
75.340838
 20
41.922163
 10
75.340838
 20
42.477837
 10
74.073963
 20
42.477837
 10
74.073963
 20
41.922163
 10
75.340838
 20
41.922163
 10
75.340838
 20
42.477837
 10
74.073963
 20
42.477837
 10
74.073963
 20
41.922163
  0
LWPOLYLINE
  8
0
 62
7
 90
9
 70
1
 10
74.707400
 20
41.122163
 10
75.340838
 20
41.122163
 10
75.340838
 20
41.677837
 10
74.073963
 20
41.677837
 10
74.073963
 20
41.122163
 10
75.340838
 20
41.122163
 10
75.340838
 20
41.677837
 10
74.073963
 20
41.677837
 10
74.073963
 20
41.122163
  0
LWPOLYLINE
  8
0
 62
7
 90
9
 70
1
 10
74.707400
 20
40.322163
 10
75.340838
 20
40.322163
 10
75.340838
 20
40.877837
 10
74.073963
 20
40.877837
 10
74.073963
 20
40.322163
 10
75.340838
 20
40.322163
 10
75.340838
 20
40.877837
 10
74.073963
 20
40.877837
 10
74.073963
 20
40.322163
  0
LWPOLYLINE
  8
0
 62
7
 90
9
 70
1
 10
74.707400
 20
39.522163
 10
75.340838
 20
39.522163
 10
75.340838
 20
40.077837
 10
74.073963
 20
40.077837
 10
74.073963
 20
39.522163
 10
75.340838
 20
39.522163
 10
75.340838
 20
40.077837
 10
74.073963
 20
40.077837
 10
74.073963
 20
39.522163
  0
LWPOLYLINE
  8
0
 62
7
 90
9
 70
1
 10
74.707400
 20
38.722163
 10
75.340838
 20
38.722163
 10
75.340838
 20
39.277837
 10
74.073963
 20
39.277837
 10
74.073963
 20
38.722163
 10
75.340838
 20
38.722163
 10
75.340838
 20
39.277837
 10
74.073963
 20
39.277837
 10
74.073963
 20
38.722163
  0
LWPOLYLINE
  8
0
 62
7
 90
9
 70
1
 10
74.707400
 20
37.922163
 10
75.340838
 20
37.922163
 10
75.340838
 20
38.477837
 10
74.073963
 20
38.477837
 10
74.073963
 20
37.922163
 10
75.340838
 20
37.922163
 10
75.340838
 20
38.477837
 10
74.073963
 20
38.477837
 10
74.073963
 20
37.922163
  0
LWPOLYLINE
  8
0
 62
7
 90
9
 70
1
 10
76.200000
 20
36.073963
 10
76.477838
 20
36.073963
 10
76.477838
 20
37.340837
 10
75.922162
 20
37.340837
 10
75.922162
 20
36.073963
 10
76.477838
 20
36.073963
 10
76.477838
 20
37.340837
 10
75.922162
 20
37.340837
 10
75.922162
 20
36.073963
  0
LWPOLYLINE
  8
0
 62
7
 90
9
 70
1
 10
77.000000
 20
36.073963
 10
77.277838
 20
36.073963
 10
77.277838
 20
37.340837
 10
76.722162
 20
37.340837
 10
76.722162
 20
36.073963
 10
77.277838
 20
36.073963
 10
77.277838
 20
37.340837
 10
76.722162
 20
37.340837
 10
76.722162
 20
36.073963
  0
LWPOLYLINE
  8
0
 62
7
 90
9
 70
1
 10
77.800000
 20
36.073963
 10
78.077838
 20
36.073963
 10
78.077838
 20
37.340837
 10
77.522162
 20
37.340837
 10
77.522162
 20
36.073963
 10
78.077838
 20
36.073963
 10
78.077838
 20
37.340837
 10
77.522162
 20
37.340837
 10
77.522162
 20
36.073963
  0
LWPOLYLINE
  8
0
 62
7
 90
9
 70
1
 10
78.600000
 20
36.073963
 10
78.877837
 20
36.073963
 10
78.877837
 20
37.340837
 10
78.322162
 20
37.340837
 10
78.322162
 20
36.073963
 10
78.877837
 20
36.073963
 10
78.877837
 20
37.340837
 10
78.322162
 20
37.340837
 10
78.322162
 20
36.073963
  0
LWPOLYLINE
  8
0
 62
7
 90
9
 70
1
 10
79.400000
 20
36.073963
 10
79.677838
 20
36.073963
 10
79.677838
 20
37.340837
 10
79.122163
 20
37.340837
 10
79.122163
 20
36.073963
 10
79.677838
 20
36.073963
 10
79.677838
 20
37.340837
 10
79.122163
 20
37.340837
 10
79.122163
 20
36.073963
  0
LWPOLYLINE
  8
0
 62
7
 90
9
 70
1
 10
80.200000
 20
36.073963
 10
80.477838
 20
36.073963
 10
80.477838
 20
37.340837
 10
79.922162
 20
37.340837
 10
79.922162
 20
36.073963
 10
80.477838
 20
36.073963
 10
80.477838
 20
37.340837
 10
79.922162
 20
37.340837
 10
79.922162
 20
36.073963
  0
LWPOLYLINE
  8
0
 62
7
 90
9
 70
1
 10
81.000000
 20
36.073963
 10
81.277838
 20
36.073963
 10
81.277838
 20
37.340837
 10
80.722162
 20
37.340837
 10
80.722162
 20
36.073963
 10
81.277838
 20
36.073963
 10
81.277838
 20
37.340837
 10
80.722162
 20
37.340837
 10
80.722162
 20
36.073963
  0
LWPOLYLINE
  8
0
 62
7
 90
9
 70
1
 10
81.800000
 20
36.073963
 10
82.077838
 20
36.073963
 10
82.077838
 20
37.340837
 10
81.522162
 20
37.340837
 10
81.522162
 20
36.073963
 10
82.077838
 20
36.073963
 10
82.077838
 20
37.340837
 10
81.522162
 20
37.340837
 10
81.522162
 20
36.073963
  0
LWPOLYLINE
  8
0
 62
7
 90
9
 70
1
 10
83.292600
 20
37.922163
 10
83.926037
 20
37.922163
 10
83.926037
 20
38.477837
 10
82.659162
 20
38.477837
 10
82.659162
 20
37.922163
 10
83.926037
 20
37.922163
 10
83.926037
 20
38.477837
 10
82.659162
 20
38.477837
 10
82.659162
 20
37.922163
  0
LWPOLYLINE
  8
0
 62
7
 90
9
 70
1
 10
83.292600
 20
38.722163
 10
83.926037
 20
38.722163
 10
83.926037
 20
39.277837
 10
82.659162
 20
39.277837
 10
82.659162
 20
38.722163
 10
83.926037
 20
38.722163
 10
83.926037
 20
39.277837
 10
82.659162
 20
39.277837
 10
82.659162
 20
38.722163
  0
LWPOLYLINE
  8
0
 62
7
 90
9
 70
1
 10
83.292600
 20
39.522163
 10
83.926037
 20
39.522163
 10
83.926037
 20
40.077837
 10
82.659162
 20
40.077837
 10
82.659162
 20
39.522163
 10
83.926037
 20
39.522163
 10
83.926037
 20
40.077837
 10
82.659162
 20
40.077837
 10
82.659162
 20
39.522163
  0
LWPOLYLINE
  8
0
 62
7
 90
9
 70
1
 10
83.292600
 20
40.322163
 10
83.926037
 20
40.322163
 10
83.926037
 20
40.877837
 10
82.659162
 20
40.877837
 10
82.659162
 20
40.322163
 10
83.926037
 20
40.322163
 10
83.926037
 20
40.877837
 10
82.659162
 20
40.877837
 10
82.659162
 20
40.322163
  0
LWPOLYLINE
  8
0
 62
7
 90
9
 70
1
 10
83.292600
 20
41.122163
 10
83.926037
 20
41.122163
 10
83.926037
 20
41.677837
 10
82.659162
 20
41.677837
 10
82.659162
 20
41.122163
 10
83.926037
 20
41.122163
 10
83.926037
 20
41.677837
 10
82.659162
 20
41.677837
 10
82.659162
 20
41.122163
  0
LWPOLYLINE
  8
0
 62
7
 90
9
 70
1
 10
83.292600
 20
41.922163
 10
83.926037
 20
41.922163
 10
83.926037
 20
42.477837
 10
82.659162
 20
42.477837
 10
82.659162
 20
41.922163
 10
83.926037
 20
41.922163
 10
83.926037
 20
42.477837
 10
82.659162
 20
42.477837
 10
82.659162
 20
41.922163
  0
LWPOLYLINE
  8
0
 62
7
 90
9
 70
1
 10
83.292600
 20
42.722163
 10
83.926037
 20
42.722163
 10
83.926037
 20
43.277837
 10
82.659162
 20
43.277837
 10
82.659162
 20
42.722163
 10
83.926037
 20
42.722163
 10
83.926037
 20
43.277837
 10
82.659162
 20
43.277837
 10
82.659162
 20
42.722163
  0
LWPOLYLINE
  8
0
 62
7
 90
9
 70
1
 10
83.292600
 20
43.522163
 10
83.926037
 20
43.522163
 10
83.926037
 20
44.077837
 10
82.659162
 20
44.077837
 10
82.659162
 20
43.522163
 10
83.926037
 20
43.522163
 10
83.926037
 20
44.077837
 10
82.659162
 20
44.077837
 10
82.659162
 20
43.522163
  0
LWPOLYLINE
  8
0
 62
7
 90
9
 70
1
 10
33.001562
 20
23.050000
 10
33.001562
 20
22.551562
 10
34.098437
 20
22.551562
 10
34.098437
 20
23.548438
 10
33.001562
 20
23.548438
 10
33.001562
 20
22.551562
 10
34.098437
 20
22.551562
 10
34.098437
 20
23.548438
 10
33.001562
 20
23.548438
  0
LWPOLYLINE
  8
0
 62
7
 90
9
 70
1
 10
31.301563
 20
23.050000
 10
31.301563
 20
22.551562
 10
32.398438
 20
22.551562
 10
32.398438
 20
23.548438
 10
31.301563
 20
23.548438
 10
31.301563
 20
22.551562
 10
32.398438
 20
22.551562
 10
32.398438
 20
23.548438
 10
31.301563
 20
23.548438
  0
LWPOLYLINE
  8
0
 62
7
 90
9
 70
1
 10
33.001562
 20
20.510000
 10
33.001562
 20
20.011563
 10
34.098437
 20
20.011563
 10
34.098437
 20
21.008438
 10
33.001562
 20
21.008438
 10
33.001562
 20
20.011563
 10
34.098437
 20
20.011563
 10
34.098437
 20
21.008438
 10
33.001562
 20
21.008438
  0
LWPOLYLINE
  8
0
 62
7
 90
9
 70
1
 10
31.301563
 20
20.510000
 10
31.301563
 20
20.011563
 10
32.398438
 20
20.011563
 10
32.398438
 20
21.008438
 10
31.301563
 20
21.008438
 10
31.301563
 20
20.011563
 10
32.398438
 20
20.011563
 10
32.398438
 20
21.008438
 10
31.301563
 20
21.008438
  0
LWPOLYLINE
  8
0
 62
7
 90
9
 70
1
 10
36.801563
 20
18.290000
 10
36.801563
 20
17.791562
 10
37.898438
 20
17.791562
 10
37.898438
 20
18.788438
 10
36.801563
 20
18.788438
 10
36.801563
 20
17.791562
 10
37.898438
 20
17.791562
 10
37.898438
 20
18.788438
 10
36.801563
 20
18.788438
  0
LWPOLYLINE
  8
0
 62
7
 90
9
 70
1
 10
35.101562
 20
18.290000
 10
35.101562
 20
17.791562
 10
36.198437
 20
17.791562
 10
36.198437
 20
18.788438
 10
35.101562
 20
18.788438
 10
35.101562
 20
17.791562
 10
36.198437
 20
17.791562
 10
36.198437
 20
18.788438
 10
35.101562
 20
18.788438
  0
LWPOLYLINE
  8
0
 62
7
 90
9
 70
1
 10
34.838437
 20
25.510000
 10
34.838437
 20
26.008438
 10
33.741563
 20
26.008438
 10
33.741563
 20
25.011563
 10
34.838437
 20
25.011563
 10
34.838437
 20
26.008438
 10
33.741563
 20
26.008438
 10
33.741563
 20
25.011563
 10
34.838437
 20
25.011563
  0
LWPOLYLINE
  8
0
 62
7
 90
9
 70
1
 10
36.538438
 20
25.510000
 10
36.538438
 20
26.008438
 10
35.441563
 20
26.008438
 10
35.441563
 20
25.011563
 10
36.538438
 20
25.011563
 10
36.538438
 20
26.008438
 10
35.441563
 20
26.008438
 10
35.441563
 20
25.011563
 10
36.538438
 20
25.011563
  0
LWPOLYLINE
  8
0
 62
7
 90
9
 70
1
 10
28.588437
 20
23.050000
 10
28.588437
 20
23.548438
 10
27.491563
 20
23.548438
 10
27.491563
 20
22.551562
 10
28.588437
 20
22.551562
 10
28.588437
 20
23.548438
 10
27.491563
 20
23.548438
 10
27.491563
 20
22.551562
 10
28.588437
 20
22.551562
  0
LWPOLYLINE
  8
0
 62
7
 90
9
 70
1
 10
30.288437
 20
23.050000
 10
30.288437
 20
23.548438
 10
29.191562
 20
23.548438
 10
29.191562
 20
22.551562
 10
30.288437
 20
22.551562
 10
30.288437
 20
23.548438
 10
29.191562
 20
23.548438
 10
29.191562
 20
22.551562
 10
30.288437
 20
22.551562
  0
LWPOLYLINE
  8
0
 62
7
 90
9
 70
1
 10
28.890000
 20
17.001563
 10
29.388438
 20
17.001563
 10
29.388438
 20
18.098437
 10
28.391562
 20
18.098437
 10
28.391562
 20
17.001563
 10
29.388438
 20
17.001563
 10
29.388438
 20
18.098437
 10
28.391562
 20
18.098437
 10
28.391562
 20
17.001563
  0
LWPOLYLINE
  8
0
 62
7
 90
9
 70
1
 10
28.890000
 20
15.301562
 10
29.388438
 20
15.301562
 10
29.388438
 20
16.398438
 10
28.391562
 20
16.398438
 10
28.391562
 20
15.301562
 10
29.388438
 20
15.301562
 10
29.388438
 20
16.398438
 10
28.391562
 20
16.398438
 10
28.391562
 20
15.301562
  0
LWPOLYLINE
  8
0
 62
7
 90
9
 70
1
 10
33.748438
 20
49.250000
 10
33.748438
 20
49.998438
 10
32.251562
 20
49.998438
 10
32.251562
 20
48.501562
 10
33.748438
 20
48.501562
 10
33.748438
 20
49.998438
 10
32.251562
 20
49.998438
 10
32.251562
 20
48.501562
 10
33.748438
 20
48.501562
  0
LWPOLYLINE
  8
0
 62
7
 90
9
 70
1
 10
33.748438
 20
52.750000
 10
33.748438
 20
53.498438
 10
32.251562
 20
53.498438
 10
32.251562
 20
52.001562
 10
33.748438
 20
52.001562
 10
33.748438
 20
53.498438
 10
32.251562
 20
53.498438
 10
32.251562
 20
52.001562
 10
33.748438
 20
52.001562
  0
LWPOLYLINE
  8
0
 62
7
 90
9
 70
1
 10
30.748438
 20
49.250000
 10
30.748438
 20
49.998438
 10
29.251562
 20
49.998438
 10
29.251562
 20
48.501562
 10
30.748438
 20
48.501562
 10
30.748438
 20
49.998438
 10
29.251562
 20
49.998438
 10
29.251562
 20
48.501562
 10
30.748438
 20
48.501562
  0
LWPOLYLINE
  8
0
 62
7
 90
9
 70
1
 10
30.748438
 20
52.750000
 10
30.748438
 20
53.498438
 10
29.251562
 20
53.498438
 10
29.251562
 20
52.001562
 10
30.748438
 20
52.001562
 10
30.748438
 20
53.498438
 10
29.251562
 20
53.498438
 10
29.251562
 20
52.001562
 10
30.748438
 20
52.001562
  0
LWPOLYLINE
  8
0
 62
7
 90
9
 70
1
 10
50.748438
 20
49.250000
 10
50.748438
 20
49.998438
 10
49.251562
 20
49.998438
 10
49.251562
 20
48.501562
 10
50.748438
 20
48.501562
 10
50.748438
 20
49.998438
 10
49.251562
 20
49.998438
 10
49.251562
 20
48.501562
 10
50.748438
 20
48.501562
  0
LWPOLYLINE
  8
0
 62
7
 90
9
 70
1
 10
50.748438
 20
52.750000
 10
50.748438
 20
53.498438
 10
49.251562
 20
53.498438
 10
49.251562
 20
52.001562
 10
50.748438
 20
52.001562
 10
50.748438
 20
53.498438
 10
49.251562
 20
53.498438
 10
49.251562
 20
52.001562
 10
50.748438
 20
52.001562
  0
LWPOLYLINE
  8
0
 62
7
 90
9
 70
1
 10
29.202438
 20
31.610000
 10
29.202438
 20
32.497437
 10
24.125563
 20
32.497437
 10
24.125563
 20
30.722562
 10
29.202438
 20
30.722562
 10
29.202438
 20
32.497437
 10
24.125563
 20
32.497437
 10
24.125563
 20
30.722562
 10
29.202438
 20
30.722562
  0
LWPOLYLINE
  8
0
 62
7
 90
9
 70
1
 10
38.854438
 20
31.610000
 10
38.854438
 20
32.497437
 10
33.777563
 20
32.497437
 10
33.777563
 20
30.722562
 10
38.854438
 20
30.722562
 10
38.854438
 20
32.497437
 10
33.777563
 20
32.497437
 10
33.777563
 20
30.722562
 10
38.854438
 20
30.722562
  0
LWPOLYLINE
  8
0
 62
7
 90
9
 70
1
 10
71.000000
 20
45.287562
 10
71.887438
 20
45.287562
 10
71.887438
 20
50.364438
 10
70.112562
 20
50.364438
 10
70.112562
 20
45.287562
 10
71.887438
 20
45.287562
 10
71.887438
 20
50.364438
 10
70.112562
 20
50.364438
 10
70.112562
 20
45.287562
  0
LWPOLYLINE
  8
0
 62
7
 90
9
 70
1
 10
71.000000
 20
35.635562
 10
71.887438
 20
35.635562
 10
71.887438
 20
40.712438
 10
70.112562
 20
40.712438
 10
70.112562
 20
35.635562
 10
71.887438
 20
35.635562
 10
71.887438
 20
40.712438
 10
70.112562
 20
40.712438
 10
70.112562
 20
35.635562
  0
LWPOLYLINE
  8
0
 62
7
 90
9
 70
1
 10
65.900000
 20
8.451562
 10
66.598438
 20
8.451562
 10
66.598438
 20
9.448437
 10
65.201563
 20
9.448437
 10
65.201563
 20
8.451562
 10
66.598438
 20
8.451562
 10
66.598438
 20
9.448437
 10
65.201563
 20
9.448437
 10
65.201563
 20
8.451562
  0
LWPOLYLINE
  8
0
 62
7
 90
9
 70
1
 10
65.900000
 20
6.551563
 10
66.598438
 20
6.551563
 10
66.598438
 20
7.548437
 10
65.201563
 20
7.548437
 10
65.201563
 20
6.551563
 10
66.598438
 20
6.551563
 10
66.598438
 20
7.548437
 10
65.201563
 20
7.548437
 10
65.201563
 20
6.551563
  0
LWPOLYLINE
  8
0
 62
7
 90
9
 70
1
 10
68.100000
 20
7.501563
 10
68.798437
 20
7.501563
 10
68.798437
 20
8.498437
 10
67.401562
 20
8.498437
 10
67.401562
 20
7.501563
 10
68.798437
 20
7.501563
 10
68.798437
 20
8.498437
 10
67.401562
 20
8.498437
 10
67.401562
 20
7.501563
  0
LWPOLYLINE
  8
0
 62
7
 90
9
 70
1
 10
84.000000
 20
45.648438
 10
83.451562
 20
45.648438
 10
83.451562
 20
44.651562
 10
84.548438
 20
44.651562
 10
84.548438
 20
45.648438
 10
83.451562
 20
45.648438
 10
83.451562
 20
44.651562
 10
84.548438
 20
44.651562
 10
84.548438
 20
45.648438
  0
LWPOLYLINE
  8
0
 62
7
 90
9
 70
1
 10
84.000000
 20
47.348438
 10
83.451562
 20
47.348438
 10
83.451562
 20
46.351562
 10
84.548438
 20
46.351562
 10
84.548438
 20
47.348438
 10
83.451562
 20
47.348438
 10
83.451562
 20
46.351562
 10
84.548438
 20
46.351562
 10
84.548438
 20
47.348438
  0
LWPOLYLINE
  8
0
 62
7
 90
9
 70
1
 10
24.458438
 20
21.780000
 10
24.458438
 20
22.328437
 10
23.461562
 20
22.328437
 10
23.461562
 20
21.231563
 10
24.458438
 20
21.231563
 10
24.458438
 20
22.328437
 10
23.461562
 20
22.328437
 10
23.461562
 20
21.231563
 10
24.458438
 20
21.231563
  0
LWPOLYLINE
  8
0
 62
7
 90
9
 70
1
 10
26.158438
 20
21.780000
 10
26.158438
 20
22.328437
 10
25.161562
 20
22.328437
 10
25.161562
 20
21.231563
 10
26.158438
 20
21.231563
 10
26.158438
 20
22.328437
 10
25.161562
 20
22.328437
 10
25.161562
 20
21.231563
 10
26.158438
 20
21.231563
  0
LWPOLYLINE
  8
0
 62
7
 90
9
 70
1
 10
82.000000
 20
49.648438
 10
81.451562
 20
49.648438
 10
81.451562
 20
48.651562
 10
82.548438
 20
48.651562
 10
82.548438
 20
49.648438
 10
81.451562
 20
49.648438
 10
81.451562
 20
48.651562
 10
82.548438
 20
48.651562
 10
82.548438
 20
49.648438
  0
LWPOLYLINE
  8
0
 62
7
 90
9
 70
1
 10
82.000000
 20
51.348438
 10
81.451562
 20
51.348438
 10
81.451562
 20
50.351562
 10
82.548438
 20
50.351562
 10
82.548438
 20
51.348438
 10
81.451562
 20
51.348438
 10
81.451562
 20
50.351562
 10
82.548438
 20
50.351562
 10
82.548438
 20
51.348438
  0
LWPOLYLINE
  8
0
 62
7
 90
9
 70
1
 10
50.000000
 20
46.351562
 10
50.548437
 20
46.351562
 10
50.548437
 20
47.348438
 10
49.451563
 20
47.348438
 10
49.451563
 20
46.351562
 10
50.548437
 20
46.351562
 10
50.548437
 20
47.348438
 10
49.451563
 20
47.348438
 10
49.451563
 20
46.351562
  0
LWPOLYLINE
  8
0
 62
7
 90
9
 70
1
 10
50.000000
 20
44.651562
 10
50.548437
 20
44.651562
 10
50.548437
 20
45.648438
 10
49.451563
 20
45.648438
 10
49.451563
 20
44.651562
 10
50.548437
 20
44.651562
 10
50.548437
 20
45.648438
 10
49.451563
 20
45.648438
 10
49.451563
 20
44.651562
  0
LWPOLYLINE
  8
0
 62
7
 90
9
 70
1
 10
27.000000
 20
46.351562
 10
27.548437
 20
46.351562
 10
27.548437
 20
47.348438
 10
26.451563
 20
47.348438
 10
26.451563
 20
46.351562
 10
27.548437
 20
46.351562
 10
27.548437
 20
47.348438
 10
26.451563
 20
47.348438
 10
26.451563
 20
46.351562
  0
LWPOLYLINE
  8
0
 62
7
 90
9
 70
1
 10
27.000000
 20
44.651562
 10
27.548437
 20
44.651562
 10
27.548437
 20
45.648438
 10
26.451563
 20
45.648438
 10
26.451563
 20
44.651562
 10
27.548437
 20
44.651562
 10
27.548437
 20
45.648438
 10
26.451563
 20
45.648438
 10
26.451563
 20
44.651562
  0
LWPOLYLINE
  8
0
 62
7
 90
9
 70
1
 10
30.000000
 20
46.351562
 10
30.548437
 20
46.351562
 10
30.548437
 20
47.348438
 10
29.451563
 20
47.348438
 10
29.451563
 20
46.351562
 10
30.548437
 20
46.351562
 10
30.548437
 20
47.348438
 10
29.451563
 20
47.348438
 10
29.451563
 20
46.351562
  0
LWPOLYLINE
  8
0
 62
7
 90
9
 70
1
 10
30.000000
 20
44.651562
 10
30.548437
 20
44.651562
 10
30.548437
 20
45.648438
 10
29.451563
 20
45.648438
 10
29.451563
 20
44.651562
 10
30.548437
 20
44.651562
 10
30.548437
 20
45.648438
 10
29.451563
 20
45.648438
 10
29.451563
 20
44.651562
  0
LWPOLYLINE
  8
0
 62
7
 90
9
 70
1
 10
33.000000
 20
46.351562
 10
33.548437
 20
46.351562
 10
33.548437
 20
47.348438
 10
32.451563
 20
47.348438
 10
32.451563
 20
46.351562
 10
33.548437
 20
46.351562
 10
33.548437
 20
47.348438
 10
32.451563
 20
47.348438
 10
32.451563
 20
46.351562
  0
LWPOLYLINE
  8
0
 62
7
 90
9
 70
1
 10
33.000000
 20
44.651562
 10
33.548437
 20
44.651562
 10
33.548437
 20
45.648438
 10
32.451563
 20
45.648438
 10
32.451563
 20
44.651562
 10
33.548437
 20
44.651562
 10
33.548437
 20
45.648438
 10
32.451563
 20
45.648438
 10
32.451563
 20
44.651562
  0
LWPOLYLINE
  8
0
 62
7
 90
9
 70
1
 10
36.000000
 20
46.351562
 10
36.548437
 20
46.351562
 10
36.548437
 20
47.348438
 10
35.451563
 20
47.348438
 10
35.451563
 20
46.351562
 10
36.548437
 20
46.351562
 10
36.548437
 20
47.348438
 10
35.451563
 20
47.348438
 10
35.451563
 20
46.351562
  0
LWPOLYLINE
  8
0
 62
7
 90
9
 70
1
 10
36.000000
 20
44.651562
 10
36.548437
 20
44.651562
 10
36.548437
 20
45.648438
 10
35.451563
 20
45.648438
 10
35.451563
 20
44.651562
 10
36.548437
 20
44.651562
 10
36.548437
 20
45.648438
 10
35.451563
 20
45.648438
 10
35.451563
 20
44.651562
  0
LWPOLYLINE
  8
0
 62
7
 90
9
 70
1
 10
77.648438
 20
52.000000
 10
77.648438
 20
52.548437
 10
76.651563
 20
52.548437
 10
76.651563
 20
51.451563
 10
77.648438
 20
51.451563
 10
77.648438
 20
52.548437
 10
76.651563
 20
52.548437
 10
76.651563
 20
51.451563
 10
77.648438
 20
51.451563
  0
LWPOLYLINE
  8
0
 62
7
 90
9
 70
1
 10
79.348437
 20
52.000000
 10
79.348437
 20
52.548437
 10
78.351562
 20
52.548437
 10
78.351562
 20
51.451563
 10
79.348437
 20
51.451563
 10
79.348437
 20
52.548437
 10
78.351562
 20
52.548437
 10
78.351562
 20
51.451563
 10
79.348437
 20
51.451563
  0
LWPOLYLINE
  8
0
 62
7
 90
9
 70
1
 10
84.000000
 20
31.648438
 10
83.451562
 20
31.648438
 10
83.451562
 20
30.651562
 10
84.548438
 20
30.651562
 10
84.548438
 20
31.648438
 10
83.451562
 20
31.648438
 10
83.451562
 20
30.651562
 10
84.548438
 20
30.651562
 10
84.548438
 20
31.648438
  0
LWPOLYLINE
  8
0
 62
7
 90
9
 70
1
 10
84.000000
 20
33.348438
 10
83.451562
 20
33.348438
 10
83.451562
 20
32.351562
 10
84.548438
 20
32.351562
 10
84.548438
 20
33.348438
 10
83.451562
 20
33.348438
 10
83.451562
 20
32.351562
 10
84.548438
 20
32.351562
 10
84.548438
 20
33.348438
  0
LWPOLYLINE
  8
0
 62
7
 90
9
 70
1
 10
61.351562
 20
8.000000
 10
61.351562
 20
7.451562
 10
62.348438
 20
7.451562
 10
62.348438
 20
8.548438
 10
61.351562
 20
8.548438
 10
61.351562
 20
7.451562
 10
62.348438
 20
7.451562
 10
62.348438
 20
8.548438
 10
61.351562
 20
8.548438
  0
LWPOLYLINE
  8
0
 62
7
 90
9
 70
1
 10
59.651562
 20
8.000000
 10
59.651562
 20
7.451562
 10
60.648438
 20
7.451562
 10
60.648438
 20
8.548438
 10
59.651562
 20
8.548438
 10
59.651562
 20
7.451562
 10
60.648438
 20
7.451562
 10
60.648438
 20
8.548438
 10
59.651562
 20
8.548438
  0
LWPOLYLINE
  8
0
 62
7
 90
9
 70
1
 10
54.351562
 20
8.000000
 10
54.351562
 20
7.451562
 10
55.348438
 20
7.451562
 10
55.348438
 20
8.548438
 10
54.351562
 20
8.548438
 10
54.351562
 20
7.451562
 10
55.348438
 20
7.451562
 10
55.348438
 20
8.548438
 10
54.351562
 20
8.548438
  0
LWPOLYLINE
  8
0
 62
7
 90
9
 70
1
 10
52.651562
 20
8.000000
 10
52.651562
 20
7.451562
 10
53.648438
 20
7.451562
 10
53.648438
 20
8.548438
 10
52.651562
 20
8.548438
 10
52.651562
 20
7.451562
 10
53.648438
 20
7.451562
 10
53.648438
 20
8.548438
 10
52.651562
 20
8.548438
  0
LWPOLYLINE
  8
0
 62
7
 90
9
 70
1
 10
47.351562
 20
8.000000
 10
47.351562
 20
7.451562
 10
48.348438
 20
7.451562
 10
48.348438
 20
8.548438
 10
47.351562
 20
8.548438
 10
47.351562
 20
7.451562
 10
48.348438
 20
7.451562
 10
48.348438
 20
8.548438
 10
47.351562
 20
8.548438
  0
LWPOLYLINE
  8
0
 62
7
 90
9
 70
1
 10
45.651562
 20
8.000000
 10
45.651562
 20
7.451562
 10
46.648438
 20
7.451562
 10
46.648438
 20
8.548438
 10
45.651562
 20
8.548438
 10
45.651562
 20
7.451562
 10
46.648438
 20
7.451562
 10
46.648438
 20
8.548438
 10
45.651562
 20
8.548438
  0
LWPOLYLINE
  8
0
 62
7
 90
9
 70
1
 10
42.000000
 20
9.648438
 10
41.451563
 20
9.648438
 10
41.451563
 20
8.651563
 10
42.548437
 20
8.651563
 10
42.548437
 20
9.648438
 10
41.451563
 20
9.648438
 10
41.451563
 20
8.651563
 10
42.548437
 20
8.651563
 10
42.548437
 20
9.648438
  0
LWPOLYLINE
  8
0
 62
7
 90
9
 70
1
 10
42.000000
 20
11.348437
 10
41.451563
 20
11.348437
 10
41.451563
 20
10.351562
 10
42.548437
 20
10.351562
 10
42.548437
 20
11.348437
 10
41.451563
 20
11.348437
 10
41.451563
 20
10.351562
 10
42.548437
 20
10.351562
 10
42.548437
 20
11.348437
  0
LWPOLYLINE
  8
0
 62
7
 90
9
 70
1
 10
61.000000
 20
45.351562
 10
61.548437
 20
45.351562
 10
61.548437
 20
46.348438
 10
60.451563
 20
46.348438
 10
60.451563
 20
45.351562
 10
61.548437
 20
45.351562
 10
61.548437
 20
46.348438
 10
60.451563
 20
46.348438
 10
60.451563
 20
45.351562
  0
LWPOLYLINE
  8
0
 62
7
 90
9
 70
1
 10
61.000000
 20
43.651562
 10
61.548437
 20
43.651562
 10
61.548437
 20
44.648438
 10
60.451563
 20
44.648438
 10
60.451563
 20
43.651562
 10
61.548437
 20
43.651562
 10
61.548437
 20
44.648438
 10
60.451563
 20
44.648438
 10
60.451563
 20
43.651562
  0
LWPOLYLINE
  8
0
 62
7
 90
9
 70
1
 10
57.648438
 20
46.000000
 10
57.648438
 20
46.548437
 10
56.651562
 20
46.548437
 10
56.651562
 20
45.451563
 10
57.648438
 20
45.451563
 10
57.648438
 20
46.548437
 10
56.651562
 20
46.548437
 10
56.651562
 20
45.451563
 10
57.648438
 20
45.451563
  0
LWPOLYLINE
  8
0
 62
7
 90
9
 70
1
 10
59.348438
 20
46.000000
 10
59.348438
 20
46.548437
 10
58.351562
 20
46.548437
 10
58.351562
 20
45.451563
 10
59.348438
 20
45.451563
 10
59.348438
 20
46.548437
 10
58.351562
 20
46.548437
 10
58.351562
 20
45.451563
 10
59.348438
 20
45.451563
  0
LWPOLYLINE
  8
0
 62
7
 90
9
 70
1
 10
27.748438
 20
49.250000
 10
27.748438
 20
49.998438
 10
26.251562
 20
49.998438
 10
26.251562
 20
48.501562
 10
27.748438
 20
48.501562
 10
27.748438
 20
49.998438
 10
26.251562
 20
49.998438
 10
26.251562
 20
48.501562
 10
27.748438
 20
48.501562
  0
LWPOLYLINE
  8
0
 62
7
 90
9
 70
1
 10
27.748438
 20
52.750000
 10
27.748438
 20
53.498438
 10
26.251562
 20
53.498438
 10
26.251562
 20
52.001562
 10
27.748438
 20
52.001562
 10
27.748438
 20
53.498438
 10
26.251562
 20
53.498438
 10
26.251562
 20
52.001562
 10
27.748438
 20
52.001562
  0
LWPOLYLINE
  8
0
 62
7
 90
9
 70
1
 10
82.750000
 20
29.748438
 10
82.001563
 20
29.748438
 10
82.001563
 20
28.251562
 10
83.498437
 20
28.251562
 10
83.498437
 20
29.748438
 10
82.001563
 20
29.748438
 10
82.001563
 20
28.251562
 10
83.498437
 20
28.251562
 10
83.498437
 20
29.748438
  0
LWPOLYLINE
  8
0
 62
7
 90
9
 70
1
 10
79.250000
 20
29.748438
 10
78.501563
 20
29.748438
 10
78.501563
 20
28.251562
 10
79.998437
 20
28.251562
 10
79.998437
 20
29.748438
 10
78.501563
 20
29.748438
 10
78.501563
 20
28.251562
 10
79.998437
 20
28.251562
 10
79.998437
 20
29.748438
  0
LWPOLYLINE
  8
0
 62
7
 90
9
 70
1
 10
52.358437
 20
36.690000
 10
52.358437
 20
37.298437
 10
51.741563
 20
37.298437
 10
51.741563
 20
36.081562
 10
52.358437
 20
36.081562
 10
52.358437
 20
37.298437
 10
51.741563
 20
37.298437
 10
51.741563
 20
36.081562
 10
52.358437
 20
36.081562
  0
LWPOLYLINE
  8
0
 62
7
 90
9
 70
1
 10
53.308437
 20
36.690000
 10
53.308437
 20
37.298437
 10
52.691563
 20
37.298437
 10
52.691563
 20
36.081562
 10
53.308437
 20
36.081562
 10
53.308437
 20
37.298437
 10
52.691563
 20
37.298437
 10
52.691563
 20
36.081562
 10
53.308437
 20
36.081562
  0
LWPOLYLINE
  8
0
 62
7
 90
9
 70
1
 10
54.258437
 20
36.690000
 10
54.258437
 20
37.298437
 10
53.641563
 20
37.298437
 10
53.641563
 20
36.081562
 10
54.258437
 20
36.081562
 10
54.258437
 20
37.298437
 10
53.641563
 20
37.298437
 10
53.641563
 20
36.081562
 10
54.258437
 20
36.081562
  0
LWPOLYLINE
  8
0
 62
7
 90
9
 70
1
 10
54.258437
 20
39.310000
 10
54.258437
 20
39.918438
 10
53.641563
 20
39.918438
 10
53.641563
 20
38.701563
 10
54.258437
 20
38.701563
 10
54.258437
 20
39.918438
 10
53.641563
 20
39.918438
 10
53.641563
 20
38.701563
 10
54.258437
 20
38.701563
  0
LWPOLYLINE
  8
0
 62
7
 90
9
 70
1
 10
52.358437
 20
39.310000
 10
52.358437
 20
39.918438
 10
51.741563
 20
39.918438
 10
51.741563
 20
38.701563
 10
52.358437
 20
38.701563
 10
52.358437
 20
39.918438
 10
51.741563
 20
39.918438
 10
51.741563
 20
38.701563
 10
52.358437
 20
38.701563
  0
LWPOLYLINE
  8
0
 62
7
 90
9
 70
1
 10
55.500000
 20
23.556562
 10
56.948437
 20
23.556562
 10
56.948437
 20
24.443438
 10
54.051563
 20
24.443438
 10
54.051563
 20
23.556562
 10
56.948437
 20
23.556562
 10
56.948437
 20
24.443438
 10
54.051563
 20
24.443438
 10
54.051563
 20
23.556562
  0
LWPOLYLINE
  8
0
 62
7
 90
9
 70
1
 10
60.000000
 20
23.556562
 10
61.448437
 20
23.556562
 10
61.448437
 20
24.443438
 10
58.551563
 20
24.443438
 10
58.551563
 20
23.556562
 10
61.448437
 20
23.556562
 10
61.448437
 20
24.443438
 10
58.551563
 20
24.443438
 10
58.551563
 20
23.556562
  0
LWPOLYLINE
  8
0
 62
7
 90
9
 70
1
 10
55.500000
 20
21.556562
 10
56.948437
 20
21.556562
 10
56.948437
 20
22.443438
 10
54.051563
 20
22.443438
 10
54.051563
 20
21.556562
 10
56.948437
 20
21.556562
 10
56.948437
 20
22.443438
 10
54.051563
 20
22.443438
 10
54.051563
 20
21.556562
  0
LWPOLYLINE
  8
0
 62
7
 90
9
 70
1
 10
60.000000
 20
21.556562
 10
61.448437
 20
21.556562
 10
61.448437
 20
22.443438
 10
58.551563
 20
22.443438
 10
58.551563
 20
21.556562
 10
61.448437
 20
21.556562
 10
61.448437
 20
22.443438
 10
58.551563
 20
22.443438
 10
58.551563
 20
21.556562
  0
LWPOLYLINE
  8
0
 62
7
 90
9
 70
1
 10
55.500000
 20
19.556562
 10
56.948437
 20
19.556562
 10
56.948437
 20
20.443438
 10
54.051563
 20
20.443438
 10
54.051563
 20
19.556562
 10
56.948437
 20
19.556562
 10
56.948437
 20
20.443438
 10
54.051563
 20
20.443438
 10
54.051563
 20
19.556562
  0
LWPOLYLINE
  8
0
 62
7
 90
9
 70
1
 10
60.000000
 20
19.556562
 10
61.448437
 20
19.556562
 10
61.448437
 20
20.443438
 10
58.551563
 20
20.443438
 10
58.551563
 20
19.556562
 10
61.448437
 20
19.556562
 10
61.448437
 20
20.443438
 10
58.551563
 20
20.443438
 10
58.551563
 20
19.556562
  0
LWPOLYLINE
  8
0
 62
7
 90
9
 70
1
 10
55.500000
 20
17.556562
 10
56.948437
 20
17.556562
 10
56.948437
 20
18.443438
 10
54.051563
 20
18.443438
 10
54.051563
 20
17.556562
 10
56.948437
 20
17.556562
 10
56.948437
 20
18.443438
 10
54.051563
 20
18.443438
 10
54.051563
 20
17.556562
  0
LWPOLYLINE
  8
0
 62
7
 90
9
 70
1
 10
60.000000
 20
17.556562
 10
61.448437
 20
17.556562
 10
61.448437
 20
18.443438
 10
58.551563
 20
18.443438
 10
58.551563
 20
17.556562
 10
61.448437
 20
17.556562
 10
61.448437
 20
18.443438
 10
58.551563
 20
18.443438
 10
58.551563
 20
17.556562
  0
LWPOLYLINE
  8
0
 62
7
 90
9
 70
1
 10
55.500000
 20
15.556563
 10
56.948437
 20
15.556563
 10
56.948437
 20
16.443438
 10
54.051563
 20
16.443438
 10
54.051563
 20
15.556563
 10
56.948437
 20
15.556563
 10
56.948437
 20
16.443438
 10
54.051563
 20
16.443438
 10
54.051563
 20
15.556563
  0
LWPOLYLINE
  8
0
 62
7
 90
9
 70
1
 10
60.000000
 20
15.556563
 10
61.448437
 20
15.556563
 10
61.448437
 20
16.443438
 10
58.551563
 20
16.443438
 10
58.551563
 20
15.556563
 10
61.448437
 20
15.556563
 10
61.448437
 20
16.443438
 10
58.551563
 20
16.443438
 10
58.551563
 20
15.556563
  0
LWPOLYLINE
  8
0
 62
7
 90
9
 70
1
 10
39.868437
 20
22.930000
 10
39.868437
 20
23.078437
 10
39.071562
 20
23.078437
 10
39.071562
 20
22.781562
 10
39.868437
 20
22.781562
 10
39.868437
 20
23.078437
 10
39.071562
 20
23.078437
 10
39.071562
 20
22.781562
 10
39.868437
 20
22.781562
  0
LWPOLYLINE
  8
0
 62
7
 90
9
 70
1
 10
39.868437
 20
22.430000
 10
39.868437
 20
22.578437
 10
39.071562
 20
22.578437
 10
39.071562
 20
22.281562
 10
39.868437
 20
22.281562
 10
39.868437
 20
22.578437
 10
39.071562
 20
22.578437
 10
39.071562
 20
22.281562
 10
39.868437
 20
22.281562
  0
LWPOLYLINE
  8
0
 62
7
 90
9
 70
1
 10
39.868437
 20
21.930000
 10
39.868437
 20
22.078437
 10
39.071562
 20
22.078437
 10
39.071562
 20
21.781562
 10
39.868437
 20
21.781562
 10
39.868437
 20
22.078437
 10
39.071562
 20
22.078437
 10
39.071562
 20
21.781562
 10
39.868437
 20
21.781562
  0
LWPOLYLINE
  8
0
 62
7
 90
9
 70
1
 10
39.868437
 20
21.430000
 10
39.868437
 20
21.578437
 10
39.071562
 20
21.578437
 10
39.071562
 20
21.281562
 10
39.868437
 20
21.281562
 10
39.868437
 20
21.578437
 10
39.071562
 20
21.578437
 10
39.071562
 20
21.281562
 10
39.868437
 20
21.281562
  0
LWPOLYLINE
  8
0
 62
7
 90
9
 70
1
 10
39.868437
 20
20.930000
 10
39.868437
 20
21.078437
 10
39.071562
 20
21.078437
 10
39.071562
 20
20.781562
 10
39.868437
 20
20.781562
 10
39.868437
 20
21.078437
 10
39.071562
 20
21.078437
 10
39.071562
 20
20.781562
 10
39.868437
 20
20.781562
  0
LWPOLYLINE
  8
0
 62
7
 90
9
 70
1
 10
39.868437
 20
20.430000
 10
39.868437
 20
20.578437
 10
39.071562
 20
20.578437
 10
39.071562
 20
20.281562
 10
39.868437
 20
20.281562
 10
39.868437
 20
20.578437
 10
39.071562
 20
20.578437
 10
39.071562
 20
20.281562
 10
39.868437
 20
20.281562
  0
LWPOLYLINE
  8
0
 62
7
 90
9
 70
1
 10
39.868437
 20
19.930000
 10
39.868437
 20
20.078437
 10
39.071562
 20
20.078437
 10
39.071562
 20
19.781562
 10
39.868437
 20
19.781562
 10
39.868437
 20
20.078437
 10
39.071562
 20
20.078437
 10
39.071562
 20
19.781562
 10
39.868437
 20
19.781562
  0
LWPOLYLINE
  8
0
 62
7
 90
9
 70
1
 10
39.868437
 20
19.430000
 10
39.868437
 20
19.578437
 10
39.071562
 20
19.578437
 10
39.071562
 20
19.281562
 10
39.868437
 20
19.281562
 10
39.868437
 20
19.578437
 10
39.071562
 20
19.578437
 10
39.071562
 20
19.281562
 10
39.868437
 20
19.281562
  0
LWPOLYLINE
  8
0
 62
7
 90
9
 70
1
 10
40.320000
 20
18.978437
 10
40.171563
 20
18.978437
 10
40.171563
 20
18.181562
 10
40.468438
 20
18.181562
 10
40.468438
 20
18.978437
 10
40.171563
 20
18.978437
 10
40.171563
 20
18.181562
 10
40.468438
 20
18.181562
 10
40.468438
 20
18.978437
  0
LWPOLYLINE
  8
0
 62
7
 90
9
 70
1
 10
40.820000
 20
18.978437
 10
40.671563
 20
18.978437
 10
40.671563
 20
18.181562
 10
40.968438
 20
18.181562
 10
40.968438
 20
18.978437
 10
40.671563
 20
18.978437
 10
40.671563
 20
18.181562
 10
40.968438
 20
18.181562
 10
40.968438
 20
18.978437
  0
LWPOLYLINE
  8
0
 62
7
 90
9
 70
1
 10
41.320000
 20
18.978437
 10
41.171563
 20
18.978437
 10
41.171563
 20
18.181562
 10
41.468438
 20
18.181562
 10
41.468438
 20
18.978437
 10
41.171563
 20
18.978437
 10
41.171563
 20
18.181562
 10
41.468438
 20
18.181562
 10
41.468438
 20
18.978437
  0
LWPOLYLINE
  8
0
 62
7
 90
9
 70
1
 10
41.820000
 20
18.978437
 10
41.671563
 20
18.978437
 10
41.671563
 20
18.181562
 10
41.968438
 20
18.181562
 10
41.968438
 20
18.978437
 10
41.671563
 20
18.978437
 10
41.671563
 20
18.181562
 10
41.968438
 20
18.181562
 10
41.968438
 20
18.978437
  0
LWPOLYLINE
  8
0
 62
7
 90
9
 70
1
 10
42.320000
 20
18.978437
 10
42.171563
 20
18.978437
 10
42.171563
 20
18.181562
 10
42.468438
 20
18.181562
 10
42.468438
 20
18.978437
 10
42.171563
 20
18.978437
 10
42.171563
 20
18.181562
 10
42.468438
 20
18.181562
 10
42.468438
 20
18.978437
  0
LWPOLYLINE
  8
0
 62
7
 90
9
 70
1
 10
42.820000
 20
18.978437
 10
42.671563
 20
18.978437
 10
42.671563
 20
18.181562
 10
42.968438
 20
18.181562
 10
42.968438
 20
18.978437
 10
42.671563
 20
18.978437
 10
42.671563
 20
18.181562
 10
42.968438
 20
18.181562
 10
42.968438
 20
18.978437
  0
LWPOLYLINE
  8
0
 62
7
 90
9
 70
1
 10
43.320000
 20
18.978437
 10
43.171563
 20
18.978437
 10
43.171563
 20
18.181562
 10
43.468438
 20
18.181562
 10
43.468438
 20
18.978437
 10
43.171563
 20
18.978437
 10
43.171563
 20
18.181562
 10
43.468438
 20
18.181562
 10
43.468438
 20
18.978437
  0
LWPOLYLINE
  8
0
 62
7
 90
9
 70
1
 10
43.820000
 20
18.978437
 10
43.671563
 20
18.978437
 10
43.671563
 20
18.181562
 10
43.968438
 20
18.181562
 10
43.968438
 20
18.978437
 10
43.671563
 20
18.978437
 10
43.671563
 20
18.181562
 10
43.968438
 20
18.181562
 10
43.968438
 20
18.978437
  0
LWPOLYLINE
  8
0
 62
7
 90
9
 70
1
 10
44.320000
 20
18.978437
 10
44.171563
 20
18.978437
 10
44.171563
 20
18.181562
 10
44.468438
 20
18.181562
 10
44.468438
 20
18.978437
 10
44.171563
 20
18.978437
 10
44.171563
 20
18.181562
 10
44.468438
 20
18.181562
 10
44.468438
 20
18.978437
  0
LWPOLYLINE
  8
0
 62
7
 90
9
 70
1
 10
44.820000
 20
18.978437
 10
44.671563
 20
18.978437
 10
44.671563
 20
18.181562
 10
44.968438
 20
18.181562
 10
44.968438
 20
18.978437
 10
44.671563
 20
18.978437
 10
44.671563
 20
18.181562
 10
44.968438
 20
18.181562
 10
44.968438
 20
18.978437
  0
LWPOLYLINE
  8
0
 62
7
 90
9
 70
1
 10
45.320000
 20
18.978437
 10
45.171563
 20
18.978437
 10
45.171563
 20
18.181562
 10
45.468438
 20
18.181562
 10
45.468438
 20
18.978437
 10
45.171563
 20
18.978437
 10
45.171563
 20
18.181562
 10
45.468438
 20
18.181562
 10
45.468438
 20
18.978437
  0
LWPOLYLINE
  8
0
 62
7
 90
9
 70
1
 10
45.820000
 20
18.978437
 10
45.671563
 20
18.978437
 10
45.671563
 20
18.181562
 10
45.968438
 20
18.181562
 10
45.968438
 20
18.978437
 10
45.671563
 20
18.978437
 10
45.671563
 20
18.181562
 10
45.968438
 20
18.181562
 10
45.968438
 20
18.978437
  0
LWPOLYLINE
  8
0
 62
7
 90
9
 70
1
 10
46.271563
 20
19.430000
 10
46.271563
 20
19.281562
 10
47.068438
 20
19.281562
 10
47.068438
 20
19.578437
 10
46.271563
 20
19.578437
 10
46.271563
 20
19.281562
 10
47.068438
 20
19.281562
 10
47.068438
 20
19.578437
 10
46.271563
 20
19.578437
  0
LWPOLYLINE
  8
0
 62
7
 90
9
 70
1
 10
47.068438
 20
19.930000
 10
47.068438
 20
20.078437
 10
46.271563
 20
20.078437
 10
46.271563
 20
19.781562
 10
47.068438
 20
19.781562
 10
47.068438
 20
20.078437
 10
46.271563
 20
20.078437
 10
46.271563
 20
19.781562
 10
47.068438
 20
19.781562
  0
LWPOLYLINE
  8
0
 62
7
 90
9
 70
1
 10
47.068438
 20
20.430000
 10
47.068438
 20
20.578437
 10
46.271563
 20
20.578437
 10
46.271563
 20
20.281562
 10
47.068438
 20
20.281562
 10
47.068438
 20
20.578437
 10
46.271563
 20
20.578437
 10
46.271563
 20
20.281562
 10
47.068438
 20
20.281562
  0
LWPOLYLINE
  8
0
 62
7
 90
9
 70
1
 10
47.068438
 20
20.930000
 10
47.068438
 20
21.078437
 10
46.271563
 20
21.078437
 10
46.271563
 20
20.781562
 10
47.068438
 20
20.781562
 10
47.068438
 20
21.078437
 10
46.271563
 20
21.078437
 10
46.271563
 20
20.781562
 10
47.068438
 20
20.781562
  0
LWPOLYLINE
  8
0
 62
7
 90
9
 70
1
 10
47.068438
 20
21.430000
 10
47.068438
 20
21.578437
 10
46.271563
 20
21.578437
 10
46.271563
 20
21.281562
 10
47.068438
 20
21.281562
 10
47.068438
 20
21.578437
 10
46.271563
 20
21.578437
 10
46.271563
 20
21.281562
 10
47.068438
 20
21.281562
  0
LWPOLYLINE
  8
0
 62
7
 90
9
 70
1
 10
47.068438
 20
21.930000
 10
47.068438
 20
22.078437
 10
46.271563
 20
22.078437
 10
46.271563
 20
21.781562
 10
47.068438
 20
21.781562
 10
47.068438
 20
22.078437
 10
46.271563
 20
22.078437
 10
46.271563
 20
21.781562
 10
47.068438
 20
21.781562
  0
LWPOLYLINE
  8
0
 62
7
 90
9
 70
1
 10
47.068438
 20
22.430000
 10
47.068438
 20
22.578437
 10
46.271563
 20
22.578437
 10
46.271563
 20
22.281562
 10
47.068438
 20
22.281562
 10
47.068438
 20
22.578437
 10
46.271563
 20
22.578437
 10
46.271563
 20
22.281562
 10
47.068438
 20
22.281562
  0
LWPOLYLINE
  8
0
 62
7
 90
9
 70
1
 10
47.068438
 20
22.930000
 10
47.068438
 20
23.078437
 10
46.271563
 20
23.078437
 10
46.271563
 20
22.781562
 10
47.068438
 20
22.781562
 10
47.068438
 20
23.078437
 10
46.271563
 20
23.078437
 10
46.271563
 20
22.781562
 10
47.068438
 20
22.781562
  0
LWPOLYLINE
  8
0
 62
7
 90
9
 70
1
 10
45.820000
 20
23.381563
 10
45.968438
 20
23.381563
 10
45.968438
 20
24.178438
 10
45.671563
 20
24.178438
 10
45.671563
 20
23.381563
 10
45.968438
 20
23.381563
 10
45.968438
 20
24.178438
 10
45.671563
 20
24.178438
 10
45.671563
 20
23.381563
  0
LWPOLYLINE
  8
0
 62
7
 90
9
 70
1
 10
45.320000
 20
23.381563
 10
45.468438
 20
23.381563
 10
45.468438
 20
24.178438
 10
45.171563
 20
24.178438
 10
45.171563
 20
23.381563
 10
45.468438
 20
23.381563
 10
45.468438
 20
24.178438
 10
45.171563
 20
24.178438
 10
45.171563
 20
23.381563
  0
LWPOLYLINE
  8
0
 62
7
 90
9
 70
1
 10
44.820000
 20
23.381563
 10
44.968438
 20
23.381563
 10
44.968438
 20
24.178438
 10
44.671563
 20
24.178438
 10
44.671563
 20
23.381563
 10
44.968438
 20
23.381563
 10
44.968438
 20
24.178438
 10
44.671563
 20
24.178438
 10
44.671563
 20
23.381563
  0
LWPOLYLINE
  8
0
 62
7
 90
9
 70
1
 10
44.320000
 20
23.381563
 10
44.468438
 20
23.381563
 10
44.468438
 20
24.178438
 10
44.171563
 20
24.178438
 10
44.171563
 20
23.381563
 10
44.468438
 20
23.381563
 10
44.468438
 20
24.178438
 10
44.171563
 20
24.178438
 10
44.171563
 20
23.381563
  0
LWPOLYLINE
  8
0
 62
7
 90
9
 70
1
 10
43.820000
 20
23.381563
 10
43.968438
 20
23.381563
 10
43.968438
 20
24.178438
 10
43.671563
 20
24.178438
 10
43.671563
 20
23.381563
 10
43.968438
 20
23.381563
 10
43.968438
 20
24.178438
 10
43.671563
 20
24.178438
 10
43.671563
 20
23.381563
  0
LWPOLYLINE
  8
0
 62
7
 90
9
 70
1
 10
43.320000
 20
23.381563
 10
43.468438
 20
23.381563
 10
43.468438
 20
24.178438
 10
43.171563
 20
24.178438
 10
43.171563
 20
23.381563
 10
43.468438
 20
23.381563
 10
43.468438
 20
24.178438
 10
43.171563
 20
24.178438
 10
43.171563
 20
23.381563
  0
LWPOLYLINE
  8
0
 62
7
 90
9
 70
1
 10
42.820000
 20
23.381563
 10
42.968438
 20
23.381563
 10
42.968438
 20
24.178438
 10
42.671563
 20
24.178438
 10
42.671563
 20
23.381563
 10
42.968438
 20
23.381563
 10
42.968438
 20
24.178438
 10
42.671563
 20
24.178438
 10
42.671563
 20
23.381563
  0
LWPOLYLINE
  8
0
 62
7
 90
9
 70
1
 10
42.320000
 20
23.381563
 10
42.468438
 20
23.381563
 10
42.468438
 20
24.178438
 10
42.171563
 20
24.178438
 10
42.171563
 20
23.381563
 10
42.468438
 20
23.381563
 10
42.468438
 20
24.178438
 10
42.171563
 20
24.178438
 10
42.171563
 20
23.381563
  0
LWPOLYLINE
  8
0
 62
7
 90
9
 70
1
 10
41.820000
 20
23.381563
 10
41.968438
 20
23.381563
 10
41.968438
 20
24.178438
 10
41.671563
 20
24.178438
 10
41.671563
 20
23.381563
 10
41.968438
 20
23.381563
 10
41.968438
 20
24.178438
 10
41.671563
 20
24.178438
 10
41.671563
 20
23.381563
  0
LWPOLYLINE
  8
0
 62
7
 90
9
 70
1
 10
41.320000
 20
23.381563
 10
41.468438
 20
23.381563
 10
41.468438
 20
24.178438
 10
41.171563
 20
24.178438
 10
41.171563
 20
23.381563
 10
41.468438
 20
23.381563
 10
41.468438
 20
24.178438
 10
41.171563
 20
24.178438
 10
41.171563
 20
23.381563
  0
LWPOLYLINE
  8
0
 62
7
 90
9
 70
1
 10
40.820000
 20
23.381563
 10
40.968438
 20
23.381563
 10
40.968438
 20
24.178438
 10
40.671563
 20
24.178438
 10
40.671563
 20
23.381563
 10
40.968438
 20
23.381563
 10
40.968438
 20
24.178438
 10
40.671563
 20
24.178438
 10
40.671563
 20
23.381563
  0
LWPOLYLINE
  8
0
 62
7
 90
9
 70
1
 10
40.320000
 20
23.381563
 10
40.468438
 20
23.381563
 10
40.468438
 20
24.178438
 10
40.171563
 20
24.178438
 10
40.171563
 20
23.381563
 10
40.468438
 20
23.381563
 10
40.468438
 20
24.178438
 10
40.171563
 20
24.178438
 10
40.171563
 20
23.381563
  0
LWPOLYLINE
  8
0
 62
7
 90
9
 70
1
 10
40.993437
 20
22.380000
 10
40.993437
 20
22.703437
 10
40.346563
 20
22.703437
 10
40.346563
 20
22.056562
 10
40.993437
 20
22.056562
 10
40.993437
 20
22.703437
 10
40.346563
 20
22.703437
 10
40.346563
 20
22.056562
 10
40.993437
 20
22.056562
  0
LWPOLYLINE
  8
0
 62
7
 90
9
 70
1
 10
40.993437
 20
21.180000
 10
40.993437
 20
21.503438
 10
40.346563
 20
21.503438
 10
40.346563
 20
20.856562
 10
40.993437
 20
20.856562
 10
40.993437
 20
21.503438
 10
40.346563
 20
21.503438
 10
40.346563
 20
20.856562
 10
40.993437
 20
20.856562
  0
LWPOLYLINE
  8
0
 62
7
 90
9
 70
1
 10
40.993437
 20
19.980000
 10
40.993437
 20
20.303438
 10
40.346563
 20
20.303438
 10
40.346563
 20
19.656562
 10
40.993437
 20
19.656562
 10
40.993437
 20
20.303438
 10
40.346563
 20
20.303438
 10
40.346563
 20
19.656562
 10
40.993437
 20
19.656562
  0
LWPOLYLINE
  8
0
 62
7
 90
9
 70
1
 10
42.193437
 20
22.380000
 10
42.193437
 20
22.703437
 10
41.546563
 20
22.703437
 10
41.546563
 20
22.056562
 10
42.193437
 20
22.056562
 10
42.193437
 20
22.703437
 10
41.546563
 20
22.703437
 10
41.546563
 20
22.056562
 10
42.193437
 20
22.056562
  0
LWPOLYLINE
  8
0
 62
7
 90
9
 70
1
 10
42.193437
 20
21.180000
 10
42.193437
 20
21.503438
 10
41.546563
 20
21.503438
 10
41.546563
 20
20.856562
 10
42.193437
 20
20.856562
 10
42.193437
 20
21.503438
 10
41.546563
 20
21.503438
 10
41.546563
 20
20.856562
 10
42.193437
 20
20.856562
  0
LWPOLYLINE
  8
0
 62
7
 90
9
 70
1
 10
42.193437
 20
19.980000
 10
42.193437
 20
20.303438
 10
41.546563
 20
20.303438
 10
41.546563
 20
19.656562
 10
42.193437
 20
19.656562
 10
42.193437
 20
20.303438
 10
41.546563
 20
20.303438
 10
41.546563
 20
19.656562
 10
42.193437
 20
19.656562
  0
LWPOLYLINE
  8
0
 62
7
 90
9
 70
1
 10
43.393437
 20
22.380000
 10
43.393437
 20
22.703437
 10
42.746563
 20
22.703437
 10
42.746563
 20
22.056562
 10
43.393437
 20
22.056562
 10
43.393437
 20
22.703437
 10
42.746563
 20
22.703437
 10
42.746563
 20
22.056562
 10
43.393437
 20
22.056562
  0
LWPOLYLINE
  8
0
 62
7
 90
9
 70
1
 10
43.393437
 20
21.180000
 10
43.393437
 20
21.503438
 10
42.746563
 20
21.503438
 10
42.746563
 20
20.856562
 10
43.393437
 20
20.856562
 10
43.393437
 20
21.503438
 10
42.746563
 20
21.503438
 10
42.746563
 20
20.856562
 10
43.393437
 20
20.856562
  0
LWPOLYLINE
  8
0
 62
7
 90
9
 70
1
 10
43.393437
 20
19.980000
 10
43.393437
 20
20.303438
 10
42.746563
 20
20.303438
 10
42.746563
 20
19.656562
 10
43.393437
 20
19.656562
 10
43.393437
 20
20.303438
 10
42.746563
 20
20.303438
 10
42.746563
 20
19.656562
 10
43.393437
 20
19.656562
  0
LWPOLYLINE
  8
0
 62
7
 90
9
 70
1
 10
44.593438
 20
19.980000
 10
44.593438
 20
20.303438
 10
43.946563
 20
20.303438
 10
43.946563
 20
19.656562
 10
44.593438
 20
19.656562
 10
44.593438
 20
20.303438
 10
43.946563
 20
20.303438
 10
43.946563
 20
19.656562
 10
44.593438
 20
19.656562
  0
LWPOLYLINE
  8
0
 62
7
 90
9
 70
1
 10
44.593438
 20
21.180000
 10
44.593438
 20
21.503438
 10
43.946563
 20
21.503438
 10
43.946563
 20
20.856562
 10
44.593438
 20
20.856562
 10
44.593438
 20
21.503438
 10
43.946563
 20
21.503438
 10
43.946563
 20
20.856562
 10
44.593438
 20
20.856562
  0
LWPOLYLINE
  8
0
 62
7
 90
9
 70
1
 10
44.593438
 20
22.380000
 10
44.593438
 20
22.703437
 10
43.946563
 20
22.703437
 10
43.946563
 20
22.056562
 10
44.593438
 20
22.056562
 10
44.593438
 20
22.703437
 10
43.946563
 20
22.703437
 10
43.946563
 20
22.056562
 10
44.593438
 20
22.056562
  0
LWPOLYLINE
  8
0
 62
7
 90
9
 70
1
 10
45.793437
 20
19.980000
 10
45.793437
 20
20.303438
 10
45.146563
 20
20.303438
 10
45.146563
 20
19.656562
 10
45.793437
 20
19.656562
 10
45.793437
 20
20.303438
 10
45.146563
 20
20.303438
 10
45.146563
 20
19.656562
 10
45.793437
 20
19.656562
  0
LWPOLYLINE
  8
0
 62
7
 90
9
 70
1
 10
45.793437
 20
21.180000
 10
45.793437
 20
21.503438
 10
45.146563
 20
21.503438
 10
45.146563
 20
20.856562
 10
45.793437
 20
20.856562
 10
45.793437
 20
21.503438
 10
45.146563
 20
21.503438
 10
45.146563
 20
20.856562
 10
45.793437
 20
20.856562
  0
LWPOLYLINE
  8
0
 62
7
 90
9
 70
1
 10
45.793437
 20
22.380000
 10
45.793437
 20
22.703437
 10
45.146563
 20
22.703437
 10
45.146563
 20
22.056562
 10
45.793437
 20
22.056562
 10
45.793437
 20
22.703437
 10
45.146563
 20
22.703437
 10
45.146563
 20
22.056562
 10
45.793437
 20
22.056562
  0
LWPOLYLINE
  8
0
 62
7
 90
9
 70
1
 10
60.600000
 20
49.451563
 10
60.848438
 20
49.451563
 10
60.848438
 20
52.548437
 10
60.351562
 20
52.548437
 10
60.351562
 20
49.451563
 10
60.848438
 20
49.451563
 10
60.848438
 20
52.548437
 10
60.351562
 20
52.548437
 10
60.351562
 20
49.451563
  0
LWPOLYLINE
  8
0
 62
7
 90
9
 70
1
 10
59.800000
 20
49.451563
 10
60.048437
 20
49.451563
 10
60.048437
 20
52.548437
 10
59.551562
 20
52.548437
 10
59.551562
 20
49.451563
 10
60.048437
 20
49.451563
 10
60.048437
 20
52.548437
 10
59.551562
 20
52.548437
 10
59.551562
 20
49.451563
  0
LWPOLYLINE
  8
0
 62
7
 90
9
 70
1
 10
59.000000
 20
49.451563
 10
59.248438
 20
49.451563
 10
59.248438
 20
52.548437
 10
58.751562
 20
52.548437
 10
58.751562
 20
49.451563
 10
59.248438
 20
49.451563
 10
59.248438
 20
52.548437
 10
58.751562
 20
52.548437
 10
58.751562
 20
49.451563
  0
LWPOLYLINE
  8
0
 62
7
 90
9
 70
1
 10
58.200000
 20
49.451563
 10
58.448438
 20
49.451563
 10
58.448438
 20
52.548437
 10
57.951563
 20
52.548437
 10
57.951563
 20
49.451563
 10
58.448438
 20
49.451563
 10
58.448438
 20
52.548437
 10
57.951563
 20
52.548437
 10
57.951563
 20
49.451563
  0
LWPOLYLINE
  8
0
 62
7
 90
9
 70
1
 10
57.400000
 20
49.451563
 10
57.648438
 20
49.451563
 10
57.648438
 20
52.548437
 10
57.151562
 20
52.548437
 10
57.151562
 20
49.451563
 10
57.648438
 20
49.451563
 10
57.648438
 20
52.548437
 10
57.151562
 20
52.548437
 10
57.151562
 20
49.451563
  0
LWPOLYLINE
  8
0
 62
7
 90
9
 70
1
 10
54.550000
 20
55.751562
 10
55.548437
 20
55.751562
 10
55.548437
 20
58.248438
 10
53.551562
 20
58.248438
 10
53.551562
 20
55.751562
 10
55.548437
 20
55.751562
 10
55.548437
 20
58.248438
 10
53.551562
 20
58.248438
 10
53.551562
 20
55.751562
  0
LWPOLYLINE
  8
0
 62
7
 90
9
 70
1
 10
63.450000
 20
55.751562
 10
64.448437
 20
55.751562
 10
64.448437
 20
58.248438
 10
62.451563
 20
58.248438
 10
62.451563
 20
55.751562
 10
64.448437
 20
55.751562
 10
64.448437
 20
58.248438
 10
62.451563
 20
58.248438
 10
62.451563
 20
55.751562
  0
LWPOLYLINE
  8
0
 62
7
 90
9
 70
1
 10
63.450000
 20
49.451563
 10
64.448437
 20
49.451563
 10
64.448437
 20
52.748438
 10
62.451563
 20
52.748438
 10
62.451563
 20
49.451563
 10
64.448437
 20
49.451563
 10
64.448437
 20
52.748438
 10
62.451563
 20
52.748438
 10
62.451563
 20
49.451563
  0
LWPOLYLINE
  8
0
 62
7
 90
9
 70
1
 10
54.550000
 20
49.451563
 10
55.548437
 20
49.451563
 10
55.548437
 20
52.748438
 10
53.551562
 20
52.748438
 10
53.551562
 20
49.451563
 10
55.548437
 20
49.451563
 10
55.548437
 20
52.748438
 10
53.551562
 20
52.748438
 10
53.551562
 20
49.451563
  0
ENDSEC
  0
EOF
