G75*
%MOIN*%
%OFA0B0*%
%FSLAX24Y24*%
%IPPOS*%
%LPD*%
%AMOC8*
5,1,8,0,0,1.08239X$1,22.5*
%
%ADD10C,0.0600*%
%ADD11C,0.0554*%
%ADD12R,0.0787X0.0787*%
%ADD13C,0.0400*%
%ADD14R,0.0560X0.0560*%
%ADD15C,0.0160*%
%ADD16C,0.0120*%
D10*
X043268Y005814D02*
X043868Y005814D01*
X045828Y005814D02*
X046428Y005814D01*
X048189Y005814D02*
X048789Y005814D01*
X050749Y005814D02*
X051349Y005814D01*
X053110Y005814D02*
X053710Y005814D01*
X055670Y005814D02*
X056270Y005814D01*
X060492Y005027D02*
X061092Y005027D01*
X063052Y005027D02*
X063652Y005027D01*
X067874Y005814D02*
X068474Y005814D01*
X070434Y005814D02*
X071034Y005814D01*
X072795Y005814D02*
X073395Y005814D01*
X075355Y005814D02*
X075955Y005814D01*
X080177Y005814D02*
X080777Y005814D01*
X082737Y005814D02*
X083337Y005814D01*
X087559Y005814D02*
X088159Y005814D01*
X090119Y005814D02*
X090719Y005814D01*
X092480Y005814D02*
X093080Y005814D01*
X095040Y005814D02*
X095640Y005814D01*
X097401Y005814D02*
X098001Y005814D01*
X099961Y005814D02*
X100561Y005814D01*
X100561Y007594D02*
X099961Y007594D01*
X098001Y007594D02*
X097401Y007594D01*
X095640Y007594D02*
X095040Y007594D01*
X093080Y007594D02*
X092480Y007594D01*
X090719Y007594D02*
X090119Y007594D01*
X088159Y007594D02*
X087559Y007594D01*
X083337Y007594D02*
X082737Y007594D01*
X080777Y007594D02*
X080177Y007594D01*
X075955Y007594D02*
X075355Y007594D01*
X073395Y007594D02*
X072795Y007594D01*
X071034Y007594D02*
X070434Y007594D01*
X068474Y007594D02*
X067874Y007594D01*
X063652Y006807D02*
X063052Y006807D01*
X061092Y006807D02*
X060492Y006807D01*
X056270Y007594D02*
X055670Y007594D01*
X053710Y007594D02*
X053110Y007594D01*
X051349Y007594D02*
X050749Y007594D01*
X048789Y007594D02*
X048189Y007594D01*
X046428Y007594D02*
X045828Y007594D01*
X043868Y007594D02*
X043268Y007594D01*
X043268Y010736D02*
X043868Y010736D01*
X045828Y010736D02*
X046428Y010736D01*
X048189Y010736D02*
X048789Y010736D01*
X050749Y010736D02*
X051349Y010736D01*
X053110Y010736D02*
X053710Y010736D01*
X055670Y010736D02*
X056270Y010736D01*
X060492Y010744D02*
X061092Y010744D01*
X063052Y010744D02*
X063652Y010744D01*
X067874Y010736D02*
X068474Y010736D01*
X070434Y010736D02*
X071034Y010736D01*
X072795Y010736D02*
X073395Y010736D01*
X075355Y010736D02*
X075955Y010736D01*
X080177Y010736D02*
X080777Y010736D01*
X082737Y010736D02*
X083337Y010736D01*
X087559Y010736D02*
X088159Y010736D01*
X090119Y010736D02*
X090719Y010736D01*
X092480Y010736D02*
X093080Y010736D01*
X095040Y010736D02*
X095640Y010736D01*
X095640Y012516D02*
X095040Y012516D01*
X093080Y012516D02*
X092480Y012516D01*
X090719Y012516D02*
X090119Y012516D01*
X088159Y012516D02*
X087559Y012516D01*
X083337Y012516D02*
X082737Y012516D01*
X080777Y012516D02*
X080177Y012516D01*
X075955Y012516D02*
X075355Y012516D01*
X073395Y012516D02*
X072795Y012516D01*
X071034Y012516D02*
X070434Y012516D01*
X068474Y012516D02*
X067874Y012516D01*
X063652Y012901D02*
X063052Y012901D01*
X061092Y012901D02*
X060492Y012901D01*
X056270Y012516D02*
X055670Y012516D01*
X053710Y012516D02*
X053110Y012516D01*
X051349Y012516D02*
X050749Y012516D01*
X048789Y012516D02*
X048189Y012516D01*
X046428Y012516D02*
X045828Y012516D01*
X043868Y012516D02*
X043268Y012516D01*
X040227Y012516D02*
X039627Y012516D01*
X037667Y012516D02*
X037067Y012516D01*
X031171Y013685D02*
X030571Y013685D01*
X030571Y014685D02*
X031171Y014685D01*
X031064Y015657D02*
X031664Y015657D01*
X029104Y015657D02*
X028504Y015657D01*
X026742Y015657D02*
X026142Y015657D01*
X024182Y015657D02*
X023582Y015657D01*
X021821Y015657D02*
X021221Y015657D01*
X019261Y015657D02*
X018661Y015657D01*
X018661Y017437D02*
X019261Y017437D01*
X021221Y017437D02*
X021821Y017437D01*
X023582Y017437D02*
X024182Y017437D01*
X026142Y017437D02*
X026742Y017437D01*
X028504Y017437D02*
X029104Y017437D01*
X031064Y017437D02*
X031664Y017437D01*
X037067Y017437D02*
X037667Y017437D01*
X039627Y017437D02*
X040227Y017437D01*
X043268Y017437D02*
X043868Y017437D01*
X045828Y017437D02*
X046428Y017437D01*
X048189Y017437D02*
X048789Y017437D01*
X050749Y017437D02*
X051349Y017437D01*
X053110Y017437D02*
X053710Y017437D01*
X055670Y017437D02*
X056270Y017437D01*
X060492Y016838D02*
X061092Y016838D01*
X063052Y016838D02*
X063652Y016838D01*
X067874Y017437D02*
X068474Y017437D01*
X070434Y017437D02*
X071034Y017437D01*
X072795Y017437D02*
X073395Y017437D01*
X075355Y017437D02*
X075955Y017437D01*
X080177Y017437D02*
X080777Y017437D01*
X082737Y017437D02*
X083337Y017437D01*
X087559Y017437D02*
X088159Y017437D01*
X090119Y017437D02*
X090719Y017437D01*
X090719Y015657D02*
X090119Y015657D01*
X088159Y015657D02*
X087559Y015657D01*
X083337Y015657D02*
X082737Y015657D01*
X080777Y015657D02*
X080177Y015657D01*
X075955Y015657D02*
X075355Y015657D01*
X073395Y015657D02*
X072795Y015657D01*
X071034Y015657D02*
X070434Y015657D01*
X068474Y015657D02*
X067874Y015657D01*
X063652Y014681D02*
X063052Y014681D01*
X061092Y014681D02*
X060492Y014681D01*
X056270Y015657D02*
X055670Y015657D01*
X053710Y015657D02*
X053110Y015657D01*
X051349Y015657D02*
X050749Y015657D01*
X048789Y015657D02*
X048189Y015657D01*
X046428Y015657D02*
X045828Y015657D01*
X043868Y015657D02*
X043268Y015657D01*
X040227Y015657D02*
X039627Y015657D01*
X037667Y015657D02*
X037067Y015657D01*
X037067Y010736D02*
X037667Y010736D01*
X039627Y010736D02*
X040227Y010736D01*
X060492Y008964D02*
X061092Y008964D01*
X063052Y008964D02*
X063652Y008964D01*
X063652Y018618D02*
X063052Y018618D01*
X061092Y018618D02*
X060492Y018618D01*
D11*
X028951Y006555D02*
X028397Y006555D01*
X028397Y005555D02*
X028951Y005555D01*
X038897Y006055D02*
X039451Y006055D01*
D12*
X017840Y003712D03*
X017840Y009224D03*
D13*
X017840Y003712D01*
D14*
X027722Y005917D03*
X040123Y007492D03*
X038942Y009067D03*
X027918Y009460D03*
X023981Y010248D03*
X025753Y010641D03*
X021225Y009067D03*
X036777Y014578D03*
D15*
X036186Y013988D01*
X036186Y010248D01*
X036580Y009854D01*
X038155Y009854D01*
X038942Y009067D01*
X039927Y010736D02*
X037367Y010736D01*
X043568Y010736D02*
X046128Y010736D01*
X048489Y010736D02*
X051049Y010736D01*
X053410Y010736D02*
X055970Y010736D01*
X060792Y010744D02*
X063352Y010744D01*
X068174Y010736D02*
X070734Y010736D01*
X073095Y010736D02*
X075655Y010736D01*
X080477Y010736D02*
X083037Y010736D01*
X087859Y010736D02*
X090419Y010736D01*
X092780Y010736D02*
X095340Y010736D01*
X095340Y012516D02*
X092780Y012516D01*
X090419Y012516D02*
X087859Y012516D01*
X083037Y012516D02*
X080477Y012516D01*
X075655Y012516D02*
X073095Y012516D01*
X070734Y012516D02*
X068174Y012516D01*
X063352Y012901D02*
X060792Y012901D01*
X055970Y012516D02*
X053410Y012516D01*
X051049Y012516D02*
X048489Y012516D01*
X046128Y012516D02*
X043568Y012516D01*
X039927Y012516D02*
X037367Y012516D01*
X027918Y009460D02*
X027722Y009263D01*
X027722Y005917D01*
X026737Y004342D02*
X022013Y009067D01*
X021225Y009067D01*
X036973Y004342D02*
X040123Y007492D01*
X043568Y007594D02*
X046128Y007594D01*
X048489Y007594D02*
X051049Y007594D01*
X053410Y007594D02*
X055970Y007594D01*
X060792Y006807D02*
X063352Y006807D01*
X068174Y007594D02*
X070734Y007594D01*
X073095Y007594D02*
X075655Y007594D01*
X080477Y007594D02*
X083037Y007594D01*
X087859Y007594D02*
X090419Y007594D01*
X092780Y007594D02*
X095340Y007594D01*
X097701Y007594D02*
X100261Y007594D01*
X100261Y005814D02*
X097701Y005814D01*
X095340Y005814D02*
X092780Y005814D01*
X090419Y005814D02*
X087859Y005814D01*
X083037Y005814D02*
X080477Y005814D01*
X075655Y005814D02*
X073095Y005814D01*
X070734Y005814D02*
X068174Y005814D01*
X063352Y005027D02*
X060792Y005027D01*
X055970Y005814D02*
X053410Y005814D01*
X051049Y005814D02*
X048489Y005814D01*
X046128Y005814D02*
X043568Y005814D01*
X036973Y004342D02*
X026737Y004342D01*
X060792Y008964D02*
X063352Y008964D01*
X063352Y014681D02*
X060792Y014681D01*
X055970Y015657D02*
X053410Y015657D01*
X051049Y015657D02*
X048489Y015657D01*
X046128Y015657D02*
X043568Y015657D01*
X039927Y015657D02*
X037367Y015657D01*
X031364Y015657D02*
X028804Y015657D01*
X026442Y015657D02*
X023882Y015657D01*
X021521Y015657D02*
X018961Y015657D01*
X018961Y017437D02*
X021521Y017437D01*
X023882Y017437D02*
X026442Y017437D01*
X028804Y017437D02*
X031364Y017437D01*
X043568Y017437D02*
X046128Y017437D01*
X053410Y017437D02*
X055970Y017437D01*
X068174Y017437D02*
X070734Y017437D01*
X070734Y015657D02*
X068174Y015657D01*
X073095Y015657D02*
X075655Y015657D01*
X080477Y015657D02*
X083037Y015657D01*
X087859Y015657D02*
X090419Y015657D01*
D16*
X025753Y010641D02*
X025359Y010248D01*
X023981Y010248D01*
M02*
