G75*
%MOIN*%
%OFA0B0*%
%FSLAX24Y24*%
%IPPOS*%
%LPD*%
%AMOC8*
5,1,8,0,0,1.08239X$1,22.5*
%
%ADD10C,0.0000*%
%ADD11C,0.0040*%
%ADD12C,0.0050*%
%ADD13C,0.0020*%
%ADD14C,0.0060*%
%ADD15R,0.0079X0.0079*%
%ADD16C,0.0080*%
D10*
X003509Y001980D02*
X003509Y021271D01*
X027131Y021271D01*
X027131Y001980D01*
X003509Y001980D01*
D11*
X011766Y004825D02*
X011843Y004748D01*
X012150Y004748D01*
X012227Y004825D01*
X012227Y004979D01*
X012150Y005055D01*
X012150Y005209D02*
X012227Y005209D01*
X012150Y005209D02*
X011843Y005516D01*
X011766Y005516D01*
X011766Y005209D01*
X011843Y005055D02*
X011766Y004979D01*
X011766Y004825D01*
X012710Y006751D02*
X012710Y007212D01*
X012941Y007212D01*
X013017Y007135D01*
X013017Y006982D01*
X012941Y006905D01*
X012710Y006905D01*
X012864Y006905D02*
X013017Y006751D01*
X013171Y006751D02*
X013478Y007058D01*
X013478Y007135D01*
X013401Y007212D01*
X013248Y007212D01*
X013171Y007135D01*
X013171Y006751D02*
X013478Y006751D01*
X014317Y006685D02*
X014317Y006378D01*
X014393Y006301D01*
X014547Y006301D01*
X014624Y006378D01*
X014777Y006301D02*
X015084Y006301D01*
X014931Y006301D02*
X014931Y006762D01*
X014777Y006608D01*
X014624Y006685D02*
X014547Y006762D01*
X014393Y006762D01*
X014317Y006685D01*
X014317Y007201D02*
X014624Y007201D01*
X014777Y007278D02*
X014854Y007201D01*
X015007Y007201D01*
X015084Y007278D01*
X015084Y007432D01*
X015007Y007508D01*
X014931Y007508D01*
X014777Y007432D01*
X014777Y007662D01*
X015084Y007662D01*
X014650Y008051D02*
X014727Y008128D01*
X014727Y008282D01*
X014650Y008358D01*
X014727Y008512D02*
X014727Y008819D01*
X014727Y008972D02*
X014650Y008972D01*
X014343Y009279D01*
X014266Y009279D01*
X014266Y008972D01*
X014266Y008665D02*
X014727Y008665D01*
X014420Y008512D02*
X014266Y008665D01*
X014343Y008358D02*
X014266Y008282D01*
X014266Y008128D01*
X014343Y008051D01*
X014650Y008051D01*
X014317Y007662D02*
X014317Y007201D01*
X015238Y006762D02*
X015238Y006532D01*
X015391Y006608D01*
X015468Y006608D01*
X015544Y006532D01*
X015544Y006378D01*
X015468Y006301D01*
X015314Y006301D01*
X015238Y006378D01*
X015596Y006562D02*
X015596Y006101D01*
X015903Y006101D01*
X016056Y006101D02*
X016363Y006101D01*
X016210Y006101D02*
X016210Y006562D01*
X016056Y006408D01*
X015544Y006762D02*
X015238Y006762D01*
X015596Y005562D02*
X015596Y005101D01*
X015903Y005101D01*
X016056Y005101D02*
X016363Y005408D01*
X016363Y005485D01*
X016287Y005562D01*
X016133Y005562D01*
X016056Y005485D01*
X016056Y005101D02*
X016363Y005101D01*
X017092Y004688D02*
X017092Y004227D01*
X017399Y004227D01*
X017552Y004304D02*
X017629Y004227D01*
X017783Y004227D01*
X017859Y004304D01*
X017859Y004381D01*
X017783Y004458D01*
X017706Y004458D01*
X017783Y004458D02*
X017859Y004534D01*
X017859Y004611D01*
X017783Y004688D01*
X017629Y004688D01*
X017552Y004611D01*
X017602Y003668D02*
X017449Y003668D01*
X017372Y003591D01*
X017372Y003284D01*
X017449Y003207D01*
X017602Y003207D01*
X017679Y003284D01*
X017832Y003284D02*
X017909Y003207D01*
X018063Y003207D01*
X018139Y003284D01*
X018139Y003438D01*
X018063Y003514D01*
X017986Y003514D01*
X017832Y003438D01*
X017832Y003668D01*
X018139Y003668D01*
X017679Y003591D02*
X017602Y003668D01*
X019021Y003669D02*
X019098Y003592D01*
X019252Y003592D01*
X019328Y003669D01*
X019482Y003592D02*
X019789Y003592D01*
X019635Y003592D02*
X019635Y004052D01*
X019482Y003899D01*
X019328Y003976D02*
X019252Y004052D01*
X019098Y004052D01*
X019021Y003976D01*
X019021Y003669D01*
X019942Y003669D02*
X020019Y003592D01*
X020172Y003592D01*
X020249Y003669D01*
X020249Y003746D01*
X020172Y003822D01*
X020096Y003822D01*
X020172Y003822D02*
X020249Y003899D01*
X020249Y003976D01*
X020172Y004052D01*
X020019Y004052D01*
X019942Y003976D01*
X019869Y005941D02*
X019793Y006018D01*
X019793Y006401D01*
X020100Y006401D02*
X020100Y006018D01*
X020023Y005941D01*
X019869Y005941D01*
X020253Y005941D02*
X020560Y005941D01*
X020407Y005941D02*
X020407Y006401D01*
X020253Y006248D01*
X020088Y007398D02*
X019781Y007398D01*
X019934Y007398D02*
X019934Y007858D01*
X019781Y007704D01*
X019627Y007858D02*
X019627Y007474D01*
X019550Y007398D01*
X019397Y007398D01*
X019320Y007474D01*
X019320Y007858D01*
X019446Y007957D02*
X019446Y008264D01*
X019449Y008288D02*
X019526Y008211D01*
X019526Y008057D01*
X019449Y007981D01*
X019142Y007981D01*
X019065Y008057D01*
X019065Y008211D01*
X019142Y008288D01*
X019215Y008417D02*
X019215Y008570D01*
X019295Y008441D02*
X019295Y008748D01*
X019446Y008724D02*
X019446Y008417D01*
X018985Y008417D01*
X018985Y008724D01*
X019065Y008671D02*
X019295Y008441D01*
X019615Y008417D02*
X019615Y008724D01*
X019526Y008671D02*
X019065Y008671D01*
X018985Y008877D02*
X018985Y009108D01*
X019062Y009184D01*
X019369Y009184D01*
X019446Y009108D01*
X019446Y008877D01*
X018985Y008877D01*
X019062Y009338D02*
X018985Y009415D01*
X018985Y009568D01*
X019062Y009645D01*
X019139Y009645D01*
X019446Y009338D01*
X019446Y009645D01*
X019615Y009491D02*
X020076Y009491D01*
X020076Y009338D02*
X020076Y009645D01*
X020178Y009854D02*
X020178Y010085D01*
X020254Y010161D01*
X020408Y010161D01*
X020485Y010085D01*
X020485Y009854D01*
X020638Y009854D02*
X020178Y009854D01*
X020485Y010008D02*
X020638Y010161D01*
X020638Y010315D02*
X020638Y010622D01*
X020638Y010468D02*
X020178Y010468D01*
X020331Y010315D01*
X020965Y010391D02*
X020965Y010545D01*
X021042Y010622D01*
X021119Y010622D01*
X021195Y010545D01*
X021272Y010622D01*
X021349Y010622D01*
X021426Y010545D01*
X021426Y010391D01*
X021349Y010315D01*
X021426Y010161D02*
X021272Y010008D01*
X021272Y010085D02*
X021272Y009854D01*
X021426Y009854D02*
X020965Y009854D01*
X020965Y010085D01*
X021042Y010161D01*
X021195Y010161D01*
X021272Y010085D01*
X021042Y010315D02*
X020965Y010391D01*
X021195Y010468D02*
X021195Y010545D01*
X021214Y009637D02*
X021521Y009330D01*
X021598Y009407D01*
X021598Y009560D01*
X021521Y009637D01*
X021214Y009637D01*
X021138Y009560D01*
X021138Y009407D01*
X021214Y009330D01*
X021521Y009330D01*
X021598Y009177D02*
X021598Y008870D01*
X021598Y009023D02*
X021138Y009023D01*
X021291Y008870D01*
X021214Y008716D02*
X021138Y008640D01*
X021138Y008486D01*
X021214Y008409D01*
X021521Y008409D01*
X021598Y008486D01*
X021598Y008640D01*
X021521Y008716D01*
X022443Y008790D02*
X022443Y008636D01*
X022520Y008559D01*
X022827Y008559D01*
X022904Y008636D01*
X022904Y008790D01*
X022827Y008866D01*
X022827Y009020D02*
X022904Y009096D01*
X022904Y009250D01*
X022827Y009327D01*
X022750Y009327D01*
X022674Y009250D01*
X022674Y009173D01*
X022674Y009250D02*
X022597Y009327D01*
X022520Y009327D01*
X022443Y009250D01*
X022443Y009096D01*
X022520Y009020D01*
X022520Y008866D02*
X022443Y008790D01*
X020076Y008724D02*
X020076Y008417D01*
X019615Y008417D01*
X019845Y008417D02*
X019845Y008570D01*
X019615Y008877D02*
X019615Y009108D01*
X019692Y009184D01*
X019999Y009184D01*
X020076Y009108D01*
X020076Y008877D01*
X019615Y008877D01*
X019769Y009338D02*
X019615Y009491D01*
X020076Y008264D02*
X020076Y007957D01*
X019615Y007957D01*
X019446Y007957D02*
X018985Y007957D01*
X018084Y007685D02*
X018084Y007608D01*
X018007Y007532D01*
X017854Y007532D01*
X017777Y007608D01*
X017777Y007685D01*
X017854Y007762D01*
X018007Y007762D01*
X018084Y007685D01*
X018007Y007532D02*
X018084Y007455D01*
X018084Y007378D01*
X018007Y007301D01*
X017854Y007301D01*
X017777Y007378D01*
X017777Y007455D01*
X017854Y007532D01*
X017624Y007685D02*
X017547Y007762D01*
X017393Y007762D01*
X017317Y007685D01*
X017317Y007378D01*
X017393Y007301D01*
X017547Y007301D01*
X017624Y007378D01*
X017547Y006762D02*
X017393Y006762D01*
X017317Y006685D01*
X017317Y006378D01*
X017393Y006301D01*
X017547Y006301D01*
X017624Y006378D01*
X017777Y006301D02*
X018084Y006301D01*
X017931Y006301D02*
X017931Y006762D01*
X017777Y006608D01*
X017624Y006685D02*
X017547Y006762D01*
X018238Y006532D02*
X018544Y006532D01*
X018468Y006762D02*
X018468Y006301D01*
X018238Y006532D02*
X018468Y006762D01*
X017468Y008170D02*
X017468Y008630D01*
X017238Y008400D01*
X017545Y008400D01*
X017084Y008170D02*
X016777Y008170D01*
X016777Y008630D01*
X015150Y005279D02*
X015073Y005279D01*
X014997Y005202D01*
X014997Y004972D01*
X015150Y004972D01*
X015227Y005049D01*
X015227Y005202D01*
X015150Y005279D01*
X014843Y005126D02*
X014997Y004972D01*
X014843Y005126D02*
X014766Y005279D01*
X015227Y004819D02*
X015227Y004512D01*
X015197Y004521D02*
X015197Y004291D01*
X015350Y004291D01*
X015427Y004368D01*
X015427Y004521D01*
X015350Y004598D01*
X015273Y004598D01*
X015197Y004521D01*
X015227Y004665D02*
X014766Y004665D01*
X014920Y004512D01*
X014966Y004598D02*
X015043Y004445D01*
X015197Y004291D01*
X015227Y004282D02*
X015150Y004358D01*
X015227Y004282D02*
X015227Y004128D01*
X015150Y004051D01*
X014843Y004051D01*
X014766Y004128D01*
X014766Y004282D01*
X014843Y004358D01*
X014966Y003831D02*
X015427Y003831D01*
X015427Y004138D01*
X012150Y007355D02*
X011843Y007355D01*
X011766Y007431D01*
X011766Y007585D01*
X011843Y007662D01*
X011997Y007815D02*
X011843Y007969D01*
X011766Y008122D01*
X011997Y008045D02*
X011997Y007815D01*
X012150Y007815D01*
X012227Y007892D01*
X012227Y008045D01*
X012150Y008122D01*
X012073Y008122D01*
X011997Y008045D01*
X012150Y007662D02*
X012227Y007585D01*
X012227Y007431D01*
X012150Y007355D01*
X025869Y006827D02*
X026483Y006827D01*
X026406Y006750D02*
X026406Y006904D01*
X026330Y006981D01*
X026253Y006981D01*
X026176Y006904D01*
X026176Y006750D01*
X026099Y006674D01*
X026023Y006674D01*
X025946Y006750D01*
X025946Y006904D01*
X026023Y006981D01*
X026099Y007134D02*
X025946Y007287D01*
X026406Y007287D01*
X026406Y007134D02*
X026406Y007441D01*
X026406Y006750D02*
X026330Y006674D01*
X026330Y006520D02*
X025946Y006520D01*
X026330Y006520D02*
X026406Y006443D01*
X026406Y006290D01*
X026330Y006213D01*
X025946Y006213D01*
D12*
X021725Y007248D02*
X021725Y005082D01*
X018773Y005082D01*
X018773Y007248D01*
X021725Y007248D01*
X018803Y007130D02*
X018805Y007148D01*
X018811Y007166D01*
X018820Y007182D01*
X018832Y007195D01*
X018847Y007206D01*
X018864Y007214D01*
X018882Y007218D01*
X018900Y007218D01*
X018918Y007214D01*
X018935Y007206D01*
X018950Y007195D01*
X018962Y007182D01*
X018971Y007166D01*
X018977Y007148D01*
X018979Y007130D01*
X018977Y007112D01*
X018971Y007094D01*
X018962Y007078D01*
X018950Y007065D01*
X018935Y007054D01*
X018918Y007046D01*
X018900Y007042D01*
X018882Y007042D01*
X018864Y007046D01*
X018847Y007054D01*
X018832Y007065D01*
X018820Y007078D01*
X018811Y007094D01*
X018805Y007112D01*
X018803Y007130D01*
X021845Y011005D02*
X021770Y011080D01*
X021770Y011230D01*
X021845Y011305D01*
X021995Y011230D02*
X022070Y011305D01*
X022145Y011305D01*
X022220Y011230D01*
X022220Y011080D01*
X022145Y011005D01*
X021995Y011080D02*
X021995Y011230D01*
X021995Y011080D02*
X021920Y011005D01*
X021845Y011005D01*
X021920Y011465D02*
X021770Y011615D01*
X022220Y011615D01*
X022220Y011465D02*
X022220Y011766D01*
X017552Y013689D02*
X017252Y013689D01*
X017402Y013689D02*
X017402Y014139D01*
X017252Y013989D01*
X017092Y014064D02*
X017092Y013764D01*
X017017Y013689D01*
X016867Y013689D01*
X016792Y013764D01*
X016792Y014064D01*
X016867Y014139D01*
X017017Y014139D01*
X017092Y014064D01*
X016942Y013839D02*
X017092Y013689D01*
D13*
X017667Y013414D02*
X020367Y013414D01*
X020367Y013114D02*
X017667Y013114D01*
X017667Y013414D02*
X017611Y013412D01*
X017556Y013406D01*
X017501Y013397D01*
X017447Y013383D01*
X017394Y013366D01*
X017343Y013345D01*
X017293Y013321D01*
X017245Y013293D01*
X017198Y013262D01*
X017154Y013228D01*
X017113Y013191D01*
X017074Y013151D01*
X017038Y013109D01*
X017006Y013064D01*
X017006Y012164D02*
X017038Y012119D01*
X017074Y012077D01*
X017113Y012037D01*
X017155Y012000D01*
X017198Y011966D01*
X017245Y011935D01*
X017293Y011907D01*
X017343Y011883D01*
X017394Y011862D01*
X017447Y011845D01*
X017501Y011831D01*
X017556Y011822D01*
X017611Y011816D01*
X017667Y011814D01*
X020367Y011814D01*
X020367Y012114D02*
X017667Y012114D01*
X017629Y012115D01*
X017592Y012120D01*
X017555Y012127D01*
X017519Y012136D01*
X017483Y012149D01*
X017449Y012164D01*
X017449Y013064D02*
X017483Y013079D01*
X017519Y013092D01*
X017555Y013101D01*
X017592Y013108D01*
X017629Y013113D01*
X017667Y013114D01*
X018567Y012614D02*
X018767Y012614D01*
X019267Y012614D02*
X019467Y012614D01*
X020367Y011814D02*
X020423Y011816D01*
X020478Y011822D01*
X020533Y011831D01*
X020587Y011845D01*
X020640Y011862D01*
X020691Y011883D01*
X020741Y011907D01*
X020789Y011935D01*
X020836Y011966D01*
X020880Y012000D01*
X020921Y012037D01*
X020960Y012077D01*
X020996Y012119D01*
X021028Y012164D01*
X021028Y013064D02*
X020996Y013109D01*
X020960Y013151D01*
X020921Y013191D01*
X020879Y013228D01*
X020836Y013262D01*
X020789Y013293D01*
X020741Y013321D01*
X020691Y013345D01*
X020640Y013366D01*
X020587Y013383D01*
X020533Y013397D01*
X020478Y013406D01*
X020423Y013412D01*
X020367Y013414D01*
X020367Y013114D02*
X020405Y013113D01*
X020442Y013108D01*
X020479Y013101D01*
X020515Y013092D01*
X020551Y013079D01*
X020585Y013064D01*
X020585Y012164D02*
X020551Y012149D01*
X020515Y012136D01*
X020479Y012127D01*
X020442Y012120D01*
X020405Y012115D01*
X020367Y012114D01*
D14*
X021167Y011664D02*
X021184Y011666D01*
X021201Y011670D01*
X021217Y011677D01*
X021231Y011687D01*
X021244Y011700D01*
X021254Y011714D01*
X021261Y011730D01*
X021265Y011747D01*
X021267Y011764D01*
X021267Y012164D01*
X021167Y011664D02*
X016867Y011664D01*
X016850Y011666D01*
X016833Y011670D01*
X016817Y011677D01*
X016803Y011687D01*
X016790Y011700D01*
X016780Y011714D01*
X016773Y011730D01*
X016769Y011747D01*
X016767Y011764D01*
X016767Y012164D01*
X016767Y013064D02*
X016767Y013464D01*
X016769Y013481D01*
X016773Y013498D01*
X016780Y013514D01*
X016790Y013528D01*
X016803Y013541D01*
X016817Y013551D01*
X016833Y013558D01*
X016850Y013562D01*
X016867Y013564D01*
X021167Y013564D01*
X021184Y013562D01*
X021201Y013558D01*
X021217Y013551D01*
X021231Y013541D01*
X021244Y013528D01*
X021254Y013514D01*
X021261Y013498D01*
X021265Y013481D01*
X021267Y013464D01*
X021267Y013064D01*
X019267Y012864D02*
X019267Y012614D01*
X019267Y012364D01*
X019117Y012364D02*
X019117Y012864D01*
X018917Y012864D01*
X018917Y012364D01*
X019117Y012364D01*
X018767Y012364D02*
X018767Y012614D01*
X018767Y012864D01*
D15*
X019966Y008476D03*
X020596Y008476D03*
D16*
X023340Y010780D02*
X024145Y010780D01*
X024945Y011130D02*
X024945Y012830D01*
X024145Y013180D02*
X023352Y013180D01*
X022545Y012830D02*
X022545Y011130D01*
X023045Y011980D02*
X023047Y012032D01*
X023053Y012084D01*
X023063Y012136D01*
X023076Y012186D01*
X023093Y012236D01*
X023114Y012284D01*
X023139Y012330D01*
X023167Y012374D01*
X023198Y012416D01*
X023232Y012456D01*
X023269Y012493D01*
X023309Y012527D01*
X023351Y012558D01*
X023395Y012586D01*
X023441Y012611D01*
X023489Y012632D01*
X023539Y012649D01*
X023589Y012662D01*
X023641Y012672D01*
X023693Y012678D01*
X023745Y012680D01*
X023797Y012678D01*
X023849Y012672D01*
X023901Y012662D01*
X023951Y012649D01*
X024001Y012632D01*
X024049Y012611D01*
X024095Y012586D01*
X024139Y012558D01*
X024181Y012527D01*
X024221Y012493D01*
X024258Y012456D01*
X024292Y012416D01*
X024323Y012374D01*
X024351Y012330D01*
X024376Y012284D01*
X024397Y012236D01*
X024414Y012186D01*
X024427Y012136D01*
X024437Y012084D01*
X024443Y012032D01*
X024445Y011980D01*
X024443Y011928D01*
X024437Y011876D01*
X024427Y011824D01*
X024414Y011774D01*
X024397Y011724D01*
X024376Y011676D01*
X024351Y011630D01*
X024323Y011586D01*
X024292Y011544D01*
X024258Y011504D01*
X024221Y011467D01*
X024181Y011433D01*
X024139Y011402D01*
X024095Y011374D01*
X024049Y011349D01*
X024001Y011328D01*
X023951Y011311D01*
X023901Y011298D01*
X023849Y011288D01*
X023797Y011282D01*
X023745Y011280D01*
X023693Y011282D01*
X023641Y011288D01*
X023589Y011298D01*
X023539Y011311D01*
X023489Y011328D01*
X023441Y011349D01*
X023395Y011374D01*
X023351Y011402D01*
X023309Y011433D01*
X023269Y011467D01*
X023232Y011504D01*
X023198Y011544D01*
X023167Y011586D01*
X023139Y011630D01*
X023114Y011676D01*
X023093Y011724D01*
X023076Y011774D01*
X023063Y011824D01*
X023053Y011876D01*
X023047Y011928D01*
X023045Y011980D01*
M02*
