  0
SECTION
  2
HEADER
  9
$ACADVER
  1
AC1009
  9
$MEASUREMENT
 70
     1
  0
ENDSEC
  0
SECTION
  2
ENTITIES
  0
LWPOLYLINE
  8
0
 62
7
 90
5
 70
1
 10
56.000000
 20
19.101562
 10
56.698437
 20
19.101562
 10
56.698437
 20
22.898438
 10
55.301563
 20
22.898438
 10
55.301563
 20
19.101562
  0
LWPOLYLINE
  8
0
 62
7
 90
5
 70
1
 10
56.000000
 20
25.101562
 10
56.698437
 20
25.101562
 10
56.698437
 20
28.898438
 10
55.301563
 20
28.898438
 10
55.301563
 20
25.101562
  0
LWPOLYLINE
  8
0
 62
7
 90
5
 70
1
 10
51.000000
 20
23.248438
 10
50.001562
 20
23.248438
 10
50.001562
 20
21.751562
 10
51.998438
 20
21.751562
 10
51.998438
 20
23.248438
  0
LWPOLYLINE
  8
0
 62
7
 90
5
 70
1
 10
51.000000
 20
26.248438
 10
50.001562
 20
26.248438
 10
50.001562
 20
24.751562
 10
51.998438
 20
24.751562
 10
51.998438
 20
26.248438
  0
LWPOLYLINE
  8
0
 62
7
 90
5
 70
1
 10
46.348438
 20
18.670000
 10
46.348438
 20
19.418438
 10
45.051563
 20
19.418438
 10
45.051563
 20
17.921563
 10
46.348438
 20
17.921563
  0
LWPOLYLINE
  8
0
 62
7
 90
5
 70
1
 10
48.048437
 20
18.670000
 10
48.048437
 20
19.418438
 10
46.751562
 20
19.418438
 10
46.751562
 20
17.921563
 10
48.048437
 20
17.921563
  0
LWPOLYLINE
  8
0
 62
7
 90
5
 70
1
 10
38.320000
 20
16.561563
 10
38.818438
 20
16.561563
 10
38.818438
 20
17.658437
 10
37.821562
 20
17.658437
 10
37.821562
 20
16.561563
  0
LWPOLYLINE
  8
0
 62
7
 90
5
 70
1
 10
38.320000
 20
14.861562
 10
38.818438
 20
14.861562
 10
38.818438
 20
15.958438
 10
37.821562
 20
15.958438
 10
37.821562
 20
14.861562
  0
LWPOLYLINE
  8
0
 62
7
 90
5
 70
1
 10
36.531562
 20
5.480000
 10
36.531562
 20
4.981563
 10
37.628437
 20
4.981563
 10
37.628437
 20
5.978438
 10
36.531562
 20
5.978438
  0
LWPOLYLINE
  8
0
 62
7
 90
5
 70
1
 10
34.831563
 20
5.480000
 10
34.831563
 20
4.981563
 10
35.928438
 20
4.981563
 10
35.928438
 20
5.978438
 10
34.831563
 20
5.978438
  0
LWPOLYLINE
  8
0
 62
7
 90
5
 70
1
 10
23.210000
 20
14.288438
 10
22.461562
 20
14.288438
 10
22.461562
 20
12.991563
 10
23.958438
 20
12.991563
 10
23.958438
 20
14.288438
  0
LWPOLYLINE
  8
0
 62
7
 90
5
 70
1
 10
23.210000
 20
15.988437
 10
22.461562
 20
15.988437
 10
22.461562
 20
14.691562
 10
23.958438
 20
14.691562
 10
23.958438
 20
15.988437
  0
LWPOLYLINE
  8
0
 62
7
 90
5
 70
1
 10
23.210000
 20
7.668437
 10
22.461562
 20
7.668437
 10
22.461562
 20
6.371562
 10
23.958438
 20
6.371562
 10
23.958438
 20
7.668437
  0
LWPOLYLINE
  8
0
 62
7
 90
5
 70
1
 10
23.210000
 20
9.368438
 10
22.461562
 20
9.368438
 10
22.461562
 20
8.071563
 10
23.958438
 20
8.071563
 10
23.958438
 20
9.368438
  0
LWPOLYLINE
  8
0
 62
7
 90
5
 70
1
 10
35.708438
 20
12.450000
 10
35.708438
 20
13.198437
 10
34.411563
 20
13.198437
 10
34.411563
 20
11.701562
 10
35.708438
 20
11.701562
  0
LWPOLYLINE
  8
0
 62
7
 90
5
 70
1
 10
37.408437
 20
12.450000
 10
37.408437
 20
13.198437
 10
36.111562
 20
13.198437
 10
36.111562
 20
11.701562
 10
37.408437
 20
11.701562
  0
LWPOLYLINE
  8
0
 62
7
 90
5
 70
1
 10
46.248438
 20
15.860000
 10
46.248438
 20
16.358438
 10
45.151563
 20
16.358438
 10
45.151563
 20
15.361562
 10
46.248438
 20
15.361562
  0
LWPOLYLINE
  8
0
 62
7
 90
5
 70
1
 10
47.948437
 20
15.860000
 10
47.948437
 20
16.358438
 10
46.851562
 20
16.358438
 10
46.851562
 20
15.361562
 10
47.948437
 20
15.361562
  0
LWPOLYLINE
  8
0
 62
7
 90
5
 70
1
 10
39.930000
 20
4.228438
 10
39.181562
 20
4.228438
 10
39.181562
 20
2.931563
 10
40.678438
 20
2.931563
 10
40.678438
 20
4.228438
  0
LWPOLYLINE
  8
0
 62
7
 90
5
 70
1
 10
39.930000
 20
5.928438
 10
39.181562
 20
5.928438
 10
39.181562
 20
4.631563
 10
40.678438
 20
4.631563
 10
40.678438
 20
5.928438
  0
LWPOLYLINE
  8
0
 62
7
 90
5
 70
1
 10
35.708438
 20
9.910000
 10
35.708438
 20
10.658437
 10
34.411563
 20
10.658437
 10
34.411563
 20
9.161563
 10
35.708438
 20
9.161563
  0
LWPOLYLINE
  8
0
 62
7
 90
5
 70
1
 10
37.408437
 20
9.910000
 10
37.408437
 20
10.658437
 10
36.111562
 20
10.658437
 10
36.111562
 20
9.161563
 10
37.408437
 20
9.161563
  0
LWPOLYLINE
  8
0
 62
7
 90
5
 70
1
 10
28.088438
 20
9.910000
 10
28.088438
 20
10.658437
 10
26.791563
 20
10.658437
 10
26.791563
 20
9.161563
 10
28.088438
 20
9.161563
  0
LWPOLYLINE
  8
0
 62
7
 90
5
 70
1
 10
29.788438
 20
9.910000
 10
29.788438
 20
10.658437
 10
28.491563
 20
10.658437
 10
28.491563
 20
9.161563
 10
29.788438
 20
9.161563
  0
LWPOLYLINE
  8
0
 62
7
 90
5
 70
1
 10
30.830000
 20
5.898438
 10
30.081562
 20
5.898438
 10
30.081562
 20
4.601562
 10
31.578437
 20
4.601562
 10
31.578437
 20
5.898438
  0
LWPOLYLINE
  8
0
 62
7
 90
5
 70
1
 10
30.830000
 20
7.598438
 10
30.081562
 20
7.598438
 10
30.081562
 20
6.301563
 10
31.578437
 20
6.301563
 10
31.578437
 20
7.598438
  0
LWPOLYLINE
  8
0
 62
7
 90
5
 70
1
 10
29.560000
 20
16.058438
 10
28.811562
 20
16.058438
 10
28.811562
 20
14.761563
 10
30.308438
 20
14.761563
 10
30.308438
 20
16.058438
  0
LWPOLYLINE
  8
0
 62
7
 90
5
 70
1
 10
29.560000
 20
17.758437
 10
28.811562
 20
17.758437
 10
28.811562
 20
16.461562
 10
30.308438
 20
16.461562
 10
30.308438
 20
17.758437
  0
LWPOLYLINE
  8
0
 62
7
 90
5
 70
1
 10
32.401563
 20
12.450000
 10
32.401563
 20
11.951562
 10
33.498438
 20
11.951562
 10
33.498438
 20
12.948437
 10
32.401563
 20
12.948437
  0
LWPOLYLINE
  8
0
 62
7
 90
5
 70
1
 10
30.701563
 20
12.450000
 10
30.701563
 20
11.951562
 10
31.798437
 20
11.951562
 10
31.798437
 20
12.948437
 10
30.701563
 20
12.948437
  0
LWPOLYLINE
  8
0
 62
7
 90
5
 70
1
 10
32.401563
 20
9.910000
 10
32.401563
 20
9.411563
 10
33.498438
 20
9.411563
 10
33.498438
 20
10.408437
 10
32.401563
 20
10.408437
  0
LWPOLYLINE
  8
0
 62
7
 90
5
 70
1
 10
30.701563
 20
9.910000
 10
30.701563
 20
9.411563
 10
31.798437
 20
9.411563
 10
31.798437
 20
10.408437
 10
30.701563
 20
10.408437
  0
LWPOLYLINE
  8
0
 62
7
 90
5
 70
1
 10
36.201563
 20
7.690000
 10
36.201563
 20
7.191563
 10
37.298437
 20
7.191563
 10
37.298437
 20
8.188438
 10
36.201563
 20
8.188438
  0
LWPOLYLINE
  8
0
 62
7
 90
5
 70
1
 10
34.501562
 20
7.690000
 10
34.501562
 20
7.191563
 10
35.598437
 20
7.191563
 10
35.598437
 20
8.188438
 10
34.501562
 20
8.188438
  0
LWPOLYLINE
  8
0
 62
7
 90
5
 70
1
 10
34.238437
 20
14.910000
 10
34.238437
 20
15.408437
 10
33.141562
 20
15.408437
 10
33.141562
 20
14.411563
 10
34.238437
 20
14.411563
  0
LWPOLYLINE
  8
0
 62
7
 90
5
 70
1
 10
35.938437
 20
14.910000
 10
35.938437
 20
15.408437
 10
34.841563
 20
15.408437
 10
34.841563
 20
14.411563
 10
35.938437
 20
14.411563
  0
LWPOLYLINE
  8
0
 62
7
 90
5
 70
1
 10
27.988437
 20
12.450000
 10
27.988437
 20
12.948437
 10
26.891563
 20
12.948437
 10
26.891563
 20
11.951562
 10
27.988437
 20
11.951562
  0
LWPOLYLINE
  8
0
 62
7
 90
5
 70
1
 10
29.688437
 20
12.450000
 10
29.688437
 20
12.948437
 10
28.591563
 20
12.948437
 10
28.591563
 20
11.951562
 10
29.688437
 20
11.951562
  0
LWPOLYLINE
  8
0
 62
7
 90
5
 70
1
 10
28.290000
 20
6.401562
 10
28.788438
 20
6.401562
 10
28.788438
 20
7.498438
 10
27.791562
 20
7.498438
 10
27.791562
 20
6.401562
  0
LWPOLYLINE
  8
0
 62
7
 90
5
 70
1
 10
28.290000
 20
4.701562
 10
28.788438
 20
4.701562
 10
28.788438
 20
5.798438
 10
27.791562
 20
5.798438
 10
27.791562
 20
4.701562
  0
LWPOLYLINE
  8
0
 62
7
 90
5
 70
1
 10
42.250000
 20
29.251562
 10
42.998438
 20
29.251562
 10
42.998438
 20
30.748438
 10
41.501562
 20
30.748438
 10
41.501562
 20
29.251562
  0
LWPOLYLINE
  8
0
 62
7
 90
5
 70
1
 10
45.750000
 20
29.251562
 10
46.498438
 20
29.251562
 10
46.498438
 20
30.748438
 10
45.001562
 20
30.748438
 10
45.001562
 20
29.251562
  0
LWPOLYLINE
  8
0
 62
7
 90
5
 70
1
 10
33.250000
 20
30.748438
 10
32.501562
 20
30.748438
 10
32.501562
 20
29.251562
 10
33.998438
 20
29.251562
 10
33.998438
 20
30.748438
  0
LWPOLYLINE
  8
0
 62
7
 90
5
 70
1
 10
29.750000
 20
30.748438
 10
29.001562
 20
30.748438
 10
29.001562
 20
29.251562
 10
30.498438
 20
29.251562
 10
30.498438
 20
30.748438
  0
LWPOLYLINE
  8
0
 62
7
 90
5
 70
1
 10
29.102438
 20
23.010000
 10
29.102438
 20
23.897438
 10
24.025562
 20
23.897438
 10
24.025562
 20
22.122563
 10
29.102438
 20
22.122563
  0
LWPOLYLINE
  8
0
 62
7
 90
5
 70
1
 10
38.754438
 20
23.010000
 10
38.754438
 20
23.897438
 10
33.677563
 20
23.897438
 10
33.677563
 20
22.122563
 10
38.754438
 20
22.122563
  0
LWPOLYLINE
  8
0
 62
7
 90
5
 70
1
 10
48.851562
 20
30.000000
 10
48.851562
 20
29.451563
 10
49.848438
 20
29.451563
 10
49.848438
 20
30.548437
 10
48.851562
 20
30.548437
  0
LWPOLYLINE
  8
0
 62
7
 90
5
 70
1
 10
47.151562
 20
30.000000
 10
47.151562
 20
29.451563
 10
48.148438
 20
29.451563
 10
48.148438
 20
30.548437
 10
47.151562
 20
30.548437
  0
LWPOLYLINE
  8
0
 62
7
 90
5
 70
1
 10
23.858438
 20
11.180000
 10
23.858438
 20
11.728438
 10
22.861562
 20
11.728438
 10
22.861562
 20
10.631562
 10
23.858438
 20
10.631562
  0
LWPOLYLINE
  8
0
 62
7
 90
5
 70
1
 10
25.558438
 20
11.180000
 10
25.558438
 20
11.728438
 10
24.561562
 20
11.728438
 10
24.561562
 20
10.631562
 10
25.558438
 20
10.631562
  0
LWPOLYLINE
  8
0
 62
7
 90
5
 70
1
 10
26.648438
 20
30.000000
 10
26.648438
 20
30.548437
 10
25.651562
 20
30.548437
 10
25.651562
 20
29.451563
 10
26.648438
 20
29.451563
  0
LWPOLYLINE
  8
0
 62
7
 90
5
 70
1
 10
28.348438
 20
30.000000
 10
28.348438
 20
30.548437
 10
27.351562
 20
30.548437
 10
27.351562
 20
29.451563
 10
28.348438
 20
29.451563
  0
LWPOLYLINE
  8
0
 62
7
 90
5
 70
1
 10
65.500000
 20
34.556562
 10
66.948437
 20
34.556562
 10
66.948437
 20
35.443438
 10
64.051563
 20
35.443438
 10
64.051563
 20
34.556562
  0
LWPOLYLINE
  8
0
 62
7
 90
5
 70
1
 10
70.000000
 20
34.556562
 10
71.448437
 20
34.556562
 10
71.448437
 20
35.443438
 10
68.551563
 20
35.443438
 10
68.551563
 20
34.556562
  0
LWPOLYLINE
  8
0
 62
7
 90
5
 70
1
 10
65.500000
 20
32.556562
 10
66.948437
 20
32.556562
 10
66.948437
 20
33.443438
 10
64.051563
 20
33.443438
 10
64.051563
 20
32.556562
  0
LWPOLYLINE
  8
0
 62
7
 90
5
 70
1
 10
70.000000
 20
32.556562
 10
71.448437
 20
32.556562
 10
71.448437
 20
33.443438
 10
68.551563
 20
33.443438
 10
68.551563
 20
32.556562
  0
LWPOLYLINE
  8
0
 62
7
 90
5
 70
1
 10
65.500000
 20
30.556562
 10
66.948437
 20
30.556562
 10
66.948437
 20
31.443438
 10
64.051563
 20
31.443438
 10
64.051563
 20
30.556562
  0
LWPOLYLINE
  8
0
 62
7
 90
5
 70
1
 10
70.000000
 20
30.556562
 10
71.448437
 20
30.556562
 10
71.448437
 20
31.443438
 10
68.551563
 20
31.443438
 10
68.551563
 20
30.556562
  0
LWPOLYLINE
  8
0
 62
7
 90
5
 70
1
 10
65.500000
 20
28.556562
 10
66.948437
 20
28.556562
 10
66.948437
 20
29.443438
 10
64.051563
 20
29.443438
 10
64.051563
 20
28.556562
  0
LWPOLYLINE
  8
0
 62
7
 90
5
 70
1
 10
70.000000
 20
28.556562
 10
71.448437
 20
28.556562
 10
71.448437
 20
29.443438
 10
68.551563
 20
29.443438
 10
68.551563
 20
28.556562
  0
LWPOLYLINE
  8
0
 62
7
 90
5
 70
1
 10
65.500000
 20
26.556562
 10
66.948437
 20
26.556562
 10
66.948437
 20
27.443438
 10
64.051563
 20
27.443438
 10
64.051563
 20
26.556562
  0
LWPOLYLINE
  8
0
 62
7
 90
5
 70
1
 10
70.000000
 20
26.556562
 10
71.448437
 20
26.556562
 10
71.448437
 20
27.443438
 10
68.551563
 20
27.443438
 10
68.551563
 20
26.556562
  0
LWPOLYLINE
  8
0
 62
7
 90
5
 70
1
 10
39.268437
 20
12.330000
 10
39.268437
 20
12.478438
 10
38.471562
 20
12.478438
 10
38.471562
 20
12.181563
 10
39.268437
 20
12.181563
  0
LWPOLYLINE
  8
0
 62
7
 90
5
 70
1
 10
39.268437
 20
11.830000
 10
39.268437
 20
11.978438
 10
38.471562
 20
11.978438
 10
38.471562
 20
11.681563
 10
39.268437
 20
11.681563
  0
LWPOLYLINE
  8
0
 62
7
 90
5
 70
1
 10
39.268437
 20
11.330000
 10
39.268437
 20
11.478438
 10
38.471562
 20
11.478438
 10
38.471562
 20
11.181563
 10
39.268437
 20
11.181563
  0
LWPOLYLINE
  8
0
 62
7
 90
5
 70
1
 10
39.268437
 20
10.830000
 10
39.268437
 20
10.978438
 10
38.471562
 20
10.978438
 10
38.471562
 20
10.681563
 10
39.268437
 20
10.681563
  0
LWPOLYLINE
  8
0
 62
7
 90
5
 70
1
 10
39.268437
 20
10.330000
 10
39.268437
 20
10.478438
 10
38.471562
 20
10.478438
 10
38.471562
 20
10.181563
 10
39.268437
 20
10.181563
  0
LWPOLYLINE
  8
0
 62
7
 90
5
 70
1
 10
39.268437
 20
9.830000
 10
39.268437
 20
9.978438
 10
38.471562
 20
9.978438
 10
38.471562
 20
9.681563
 10
39.268437
 20
9.681563
  0
LWPOLYLINE
  8
0
 62
7
 90
5
 70
1
 10
39.268437
 20
9.330000
 10
39.268437
 20
9.478438
 10
38.471562
 20
9.478438
 10
38.471562
 20
9.181563
 10
39.268437
 20
9.181563
  0
LWPOLYLINE
  8
0
 62
7
 90
5
 70
1
 10
39.268437
 20
8.830000
 10
39.268437
 20
8.978438
 10
38.471562
 20
8.978438
 10
38.471562
 20
8.681563
 10
39.268437
 20
8.681563
  0
LWPOLYLINE
  8
0
 62
7
 90
5
 70
1
 10
39.720000
 20
8.378438
 10
39.571562
 20
8.378438
 10
39.571562
 20
7.581563
 10
39.868437
 20
7.581563
 10
39.868437
 20
8.378438
  0
LWPOLYLINE
  8
0
 62
7
 90
5
 70
1
 10
40.220000
 20
8.378438
 10
40.071562
 20
8.378438
 10
40.071562
 20
7.581563
 10
40.368437
 20
7.581563
 10
40.368437
 20
8.378438
  0
LWPOLYLINE
  8
0
 62
7
 90
5
 70
1
 10
40.720000
 20
8.378438
 10
40.571562
 20
8.378438
 10
40.571562
 20
7.581563
 10
40.868437
 20
7.581563
 10
40.868437
 20
8.378438
  0
LWPOLYLINE
  8
0
 62
7
 90
5
 70
1
 10
41.220000
 20
8.378438
 10
41.071562
 20
8.378438
 10
41.071562
 20
7.581563
 10
41.368437
 20
7.581563
 10
41.368437
 20
8.378438
  0
LWPOLYLINE
  8
0
 62
7
 90
5
 70
1
 10
41.720000
 20
8.378438
 10
41.571562
 20
8.378438
 10
41.571562
 20
7.581563
 10
41.868437
 20
7.581563
 10
41.868437
 20
8.378438
  0
LWPOLYLINE
  8
0
 62
7
 90
5
 70
1
 10
42.220000
 20
8.378438
 10
42.071562
 20
8.378438
 10
42.071562
 20
7.581563
 10
42.368437
 20
7.581563
 10
42.368437
 20
8.378438
  0
LWPOLYLINE
  8
0
 62
7
 90
5
 70
1
 10
42.720000
 20
8.378438
 10
42.571562
 20
8.378438
 10
42.571562
 20
7.581563
 10
42.868437
 20
7.581563
 10
42.868437
 20
8.378438
  0
LWPOLYLINE
  8
0
 62
7
 90
5
 70
1
 10
43.220000
 20
8.378438
 10
43.071562
 20
8.378438
 10
43.071562
 20
7.581563
 10
43.368437
 20
7.581563
 10
43.368437
 20
8.378438
  0
LWPOLYLINE
  8
0
 62
7
 90
5
 70
1
 10
43.720000
 20
8.378438
 10
43.571562
 20
8.378438
 10
43.571562
 20
7.581563
 10
43.868437
 20
7.581563
 10
43.868437
 20
8.378438
  0
LWPOLYLINE
  8
0
 62
7
 90
5
 70
1
 10
44.220000
 20
8.378438
 10
44.071562
 20
8.378438
 10
44.071562
 20
7.581563
 10
44.368437
 20
7.581563
 10
44.368437
 20
8.378438
  0
LWPOLYLINE
  8
0
 62
7
 90
5
 70
1
 10
44.720000
 20
8.378438
 10
44.571562
 20
8.378438
 10
44.571562
 20
7.581563
 10
44.868437
 20
7.581563
 10
44.868437
 20
8.378438
  0
LWPOLYLINE
  8
0
 62
7
 90
5
 70
1
 10
45.220000
 20
8.378438
 10
45.071562
 20
8.378438
 10
45.071562
 20
7.581563
 10
45.368437
 20
7.581563
 10
45.368437
 20
8.378438
  0
LWPOLYLINE
  8
0
 62
7
 90
5
 70
1
 10
45.671563
 20
8.830000
 10
45.671563
 20
8.681563
 10
46.468438
 20
8.681563
 10
46.468438
 20
8.978438
 10
45.671563
 20
8.978438
  0
LWPOLYLINE
  8
0
 62
7
 90
5
 70
1
 10
46.468438
 20
9.330000
 10
46.468438
 20
9.478438
 10
45.671563
 20
9.478438
 10
45.671563
 20
9.181563
 10
46.468438
 20
9.181563
  0
LWPOLYLINE
  8
0
 62
7
 90
5
 70
1
 10
46.468438
 20
9.830000
 10
46.468438
 20
9.978438
 10
45.671563
 20
9.978438
 10
45.671563
 20
9.681563
 10
46.468438
 20
9.681563
  0
LWPOLYLINE
  8
0
 62
7
 90
5
 70
1
 10
46.468438
 20
10.330000
 10
46.468438
 20
10.478438
 10
45.671563
 20
10.478438
 10
45.671563
 20
10.181563
 10
46.468438
 20
10.181563
  0
LWPOLYLINE
  8
0
 62
7
 90
5
 70
1
 10
46.468438
 20
10.830000
 10
46.468438
 20
10.978438
 10
45.671563
 20
10.978438
 10
45.671563
 20
10.681563
 10
46.468438
 20
10.681563
  0
LWPOLYLINE
  8
0
 62
7
 90
5
 70
1
 10
46.468438
 20
11.330000
 10
46.468438
 20
11.478438
 10
45.671563
 20
11.478438
 10
45.671563
 20
11.181563
 10
46.468438
 20
11.181563
  0
LWPOLYLINE
  8
0
 62
7
 90
5
 70
1
 10
46.468438
 20
11.830000
 10
46.468438
 20
11.978438
 10
45.671563
 20
11.978438
 10
45.671563
 20
11.681563
 10
46.468438
 20
11.681563
  0
LWPOLYLINE
  8
0
 62
7
 90
5
 70
1
 10
46.468438
 20
12.330000
 10
46.468438
 20
12.478438
 10
45.671563
 20
12.478438
 10
45.671563
 20
12.181563
 10
46.468438
 20
12.181563
  0
LWPOLYLINE
  8
0
 62
7
 90
5
 70
1
 10
45.220000
 20
12.781562
 10
45.368437
 20
12.781562
 10
45.368437
 20
13.578437
 10
45.071562
 20
13.578437
 10
45.071562
 20
12.781562
  0
LWPOLYLINE
  8
0
 62
7
 90
5
 70
1
 10
44.720000
 20
12.781562
 10
44.868437
 20
12.781562
 10
44.868437
 20
13.578437
 10
44.571562
 20
13.578437
 10
44.571562
 20
12.781562
  0
LWPOLYLINE
  8
0
 62
7
 90
5
 70
1
 10
44.220000
 20
12.781562
 10
44.368437
 20
12.781562
 10
44.368437
 20
13.578437
 10
44.071562
 20
13.578437
 10
44.071562
 20
12.781562
  0
LWPOLYLINE
  8
0
 62
7
 90
5
 70
1
 10
43.720000
 20
12.781562
 10
43.868437
 20
12.781562
 10
43.868437
 20
13.578437
 10
43.571562
 20
13.578437
 10
43.571562
 20
12.781562
  0
LWPOLYLINE
  8
0
 62
7
 90
5
 70
1
 10
43.220000
 20
12.781562
 10
43.368437
 20
12.781562
 10
43.368437
 20
13.578437
 10
43.071562
 20
13.578437
 10
43.071562
 20
12.781562
  0
LWPOLYLINE
  8
0
 62
7
 90
5
 70
1
 10
42.720000
 20
12.781562
 10
42.868437
 20
12.781562
 10
42.868437
 20
13.578437
 10
42.571562
 20
13.578437
 10
42.571562
 20
12.781562
  0
LWPOLYLINE
  8
0
 62
7
 90
5
 70
1
 10
42.220000
 20
12.781562
 10
42.368437
 20
12.781562
 10
42.368437
 20
13.578437
 10
42.071562
 20
13.578437
 10
42.071562
 20
12.781562
  0
LWPOLYLINE
  8
0
 62
7
 90
5
 70
1
 10
41.720000
 20
12.781562
 10
41.868437
 20
12.781562
 10
41.868437
 20
13.578437
 10
41.571562
 20
13.578437
 10
41.571562
 20
12.781562
  0
LWPOLYLINE
  8
0
 62
7
 90
5
 70
1
 10
41.220000
 20
12.781562
 10
41.368437
 20
12.781562
 10
41.368437
 20
13.578437
 10
41.071562
 20
13.578437
 10
41.071562
 20
12.781562
  0
LWPOLYLINE
  8
0
 62
7
 90
5
 70
1
 10
40.720000
 20
12.781562
 10
40.868437
 20
12.781562
 10
40.868437
 20
13.578437
 10
40.571562
 20
13.578437
 10
40.571562
 20
12.781562
  0
LWPOLYLINE
  8
0
 62
7
 90
5
 70
1
 10
40.220000
 20
12.781562
 10
40.368437
 20
12.781562
 10
40.368437
 20
13.578437
 10
40.071562
 20
13.578437
 10
40.071562
 20
12.781562
  0
LWPOLYLINE
  8
0
 62
7
 90
5
 70
1
 10
39.720000
 20
12.781562
 10
39.868437
 20
12.781562
 10
39.868437
 20
13.578437
 10
39.571562
 20
13.578437
 10
39.571562
 20
12.781562
  0
LWPOLYLINE
  8
0
 62
7
 90
5
 70
1
 10
40.393437
 20
11.780000
 10
40.393437
 20
12.103438
 10
39.746563
 20
12.103438
 10
39.746563
 20
11.456562
 10
40.393437
 20
11.456562
  0
LWPOLYLINE
  8
0
 62
7
 90
5
 70
1
 10
40.393437
 20
10.580000
 10
40.393437
 20
10.903438
 10
39.746563
 20
10.903438
 10
39.746563
 20
10.256562
 10
40.393437
 20
10.256562
  0
LWPOLYLINE
  8
0
 62
7
 90
5
 70
1
 10
40.393437
 20
9.380000
 10
40.393437
 20
9.703438
 10
39.746563
 20
9.703438
 10
39.746563
 20
9.056563
 10
40.393437
 20
9.056563
  0
LWPOLYLINE
  8
0
 62
7
 90
5
 70
1
 10
41.593438
 20
11.780000
 10
41.593438
 20
12.103438
 10
40.946563
 20
12.103438
 10
40.946563
 20
11.456562
 10
41.593438
 20
11.456562
  0
LWPOLYLINE
  8
0
 62
7
 90
5
 70
1
 10
41.593438
 20
10.580000
 10
41.593438
 20
10.903438
 10
40.946563
 20
10.903438
 10
40.946563
 20
10.256562
 10
41.593438
 20
10.256562
  0
LWPOLYLINE
  8
0
 62
7
 90
5
 70
1
 10
41.593438
 20
9.380000
 10
41.593438
 20
9.703438
 10
40.946563
 20
9.703438
 10
40.946563
 20
9.056563
 10
41.593438
 20
9.056563
  0
LWPOLYLINE
  8
0
 62
7
 90
5
 70
1
 10
42.793437
 20
11.780000
 10
42.793437
 20
12.103438
 10
42.146563
 20
12.103438
 10
42.146563
 20
11.456562
 10
42.793437
 20
11.456562
  0
LWPOLYLINE
  8
0
 62
7
 90
5
 70
1
 10
42.793437
 20
10.580000
 10
42.793437
 20
10.903438
 10
42.146563
 20
10.903438
 10
42.146563
 20
10.256562
 10
42.793437
 20
10.256562
  0
LWPOLYLINE
  8
0
 62
7
 90
5
 70
1
 10
42.793437
 20
9.380000
 10
42.793437
 20
9.703438
 10
42.146563
 20
9.703438
 10
42.146563
 20
9.056563
 10
42.793437
 20
9.056563
  0
LWPOLYLINE
  8
0
 62
7
 90
5
 70
1
 10
43.993437
 20
9.380000
 10
43.993437
 20
9.703438
 10
43.346563
 20
9.703438
 10
43.346563
 20
9.056563
 10
43.993437
 20
9.056563
  0
LWPOLYLINE
  8
0
 62
7
 90
5
 70
1
 10
43.993437
 20
10.580000
 10
43.993437
 20
10.903438
 10
43.346563
 20
10.903438
 10
43.346563
 20
10.256562
 10
43.993437
 20
10.256562
  0
LWPOLYLINE
  8
0
 62
7
 90
5
 70
1
 10
43.993437
 20
11.780000
 10
43.993437
 20
12.103438
 10
43.346563
 20
12.103438
 10
43.346563
 20
11.456562
 10
43.993437
 20
11.456562
  0
LWPOLYLINE
  8
0
 62
7
 90
5
 70
1
 10
45.193437
 20
9.380000
 10
45.193437
 20
9.703438
 10
44.546563
 20
9.703438
 10
44.546563
 20
9.056563
 10
45.193437
 20
9.056563
  0
LWPOLYLINE
  8
0
 62
7
 90
5
 70
1
 10
45.193437
 20
10.580000
 10
45.193437
 20
10.903438
 10
44.546563
 20
10.903438
 10
44.546563
 20
10.256562
 10
45.193437
 20
10.256562
  0
LWPOLYLINE
  8
0
 62
7
 90
5
 70
1
 10
45.193437
 20
11.780000
 10
45.193437
 20
12.103438
 10
44.546563
 20
12.103438
 10
44.546563
 20
11.456562
 10
45.193437
 20
11.456562
  0
ENDSEC
  0
EOF
